<svg width="110" height="33" viewBox="0 0 110 33" fill="none" xmlns="http://www.w3.org/2000/svg">
<g clip-path="url(#clip0_2105_7550)">
<path d="M24.0666 8.08899C24.0666 3.62266 20.4739 0 16.0445 0C11.6152 0 8.02246 3.62266 8.02246 8.08899H24.0666Z" fill="#00877C"/>
<path d="M24.0666 24.2637C24.0666 28.73 20.4739 32.3527 16.0445 32.3527C11.6152 32.3527 8.02246 28.73 8.02246 24.2637H24.0666Z" fill="#00877C"/>
<path d="M15.2795 16.2141C11.207 16.6012 8.01915 20.0575 8.01915 24.2668C3.58976 24.2668 -0.00292969 20.6442 -0.00292969 16.1779C-0.00292969 11.7115 3.58976 8.08887 8.01915 8.08887C8.01915 12.2951 11.204 15.7545 15.2795 16.1416V16.2141Z" fill="#00877C"/>
<path d="M16.8057 16.2141C20.8782 16.6012 24.063 20.0575 24.063 24.2668C28.4924 24.2668 32.0851 20.6442 32.0851 16.1779C32.0851 11.7115 28.4924 8.08887 24.063 8.08887C24.063 12.2951 20.8782 15.7545 16.8057 16.1416V16.2141Z" fill="#00877C"/>
<path d="M99.8091 8.09473H96.2764V24.3695H99.8091V8.09473Z" fill="#37424A"/>
<path d="M94.7114 8.73048C93.5119 8.12569 92.1114 7.79004 90.6779 7.79004C85.3788 7.79004 81.7441 11.8572 81.7441 16.4626C81.7441 21.0681 85.5108 24.8661 90.6119 24.8661C92.0784 24.8661 93.4129 24.4639 94.7114 23.9257V20.1609C93.7458 21.1679 92.2133 21.7999 90.7109 21.7999C87.4121 21.7999 85.4118 19.1177 85.4118 16.3961C85.4118 13.6746 87.3461 10.8896 90.7469 10.8896C92.2463 10.8896 93.7488 11.452 94.7144 12.5285V8.73048" fill="#37424A"/>
<path d="M68.1563 10.9353V8.09277H58.7217V24.3705H68.1563V21.5704H62.2874V17.5153H67.9223V14.6728H62.2874V10.9353H68.1563Z" fill="#37424A"/>
<path d="M99.9473 15.4852L105.897 24.3695H110L103.948 15.4852L109.235 8.09473H105.153L99.9473 15.4852Z" fill="#37424A"/>
<path d="M73.2271 10.7448C73.2271 10.7448 75.3533 10.7387 75.4913 10.7508C76.6669 10.8748 77.5845 11.8787 77.5845 13.1004C77.5845 14.4037 76.5379 15.4621 75.2424 15.4621H75.2034C75.0505 15.4621 74.3427 15.4742 74.1808 15.4742H73.3441L79.2309 24.3705H83.2345L78.3163 17.352C80.3525 16.6505 81.1982 14.9178 81.1982 12.925C81.1982 10.2639 79.057 8.09277 76.418 8.09277C76.322 8.09277 69.6914 8.09277 69.6914 8.09277V24.3705H73.2241V10.7448H73.2271Z" fill="#37424A"/>
<path d="M48.4084 24.5459L53.3986 12.8222L53.4016 24.3736H56.8743V8.09277H51.7162L48.4054 16.4358L45.0946 8.09277H39.9395V24.3736H43.4122V12.8222L48.4054 24.5459H48.4084Z" fill="#37424A"/>
</g>
<defs>
<clipPath id="clip0_2105_7550">
<rect width="110" height="32.3529" fill="white"/>
</clipPath>
</defs>
</svg>
