<?xml version="1.0" encoding="UTF-8"?>
<svg id="Layer_1" xmlns="http://www.w3.org/2000/svg" xmlns:xlink="http://www.w3.org/1999/xlink" version="1.1" viewBox="0 0 309 1257.9">
  <!-- Generator: Adobe Illustrator 29.2.1, SVG Export Plug-In . SVG Version: 2.1.0 Build 116)  -->
  <defs>
    <style>
      .st0, .st1, .st2, .st3, .st4 {
        fill: none;
      }

      .st5 {
        mask: url(#mask);
      }

      .st6, .st7, .st8, .st9, .st10, .st11, .st12, .st13, .st14 {
        fill-rule: evenodd;
      }

      .st6, .st15 {
        fill: #bebebe;
      }

      .st16, .st17, .st18, .st19, .st20 {
        fill: #449d46;
      }

      .st16, .st21, .st22, .st23, .st24 {
        font-family: ProximaNova-Regular, 'Proxima Nova';
      }

      .st16, .st21, .st23, .st25 {
        font-size: 14px;
      }

      .st26 {
        fill: url(#linear-gradient2);
      }

      .st27 {
        fill: url(#linear-gradient1);
      }

      .st17, .st28, .st29, .st30, .st31, .st32 {
        font-family: ProximaNova-Bold, 'Proxima Nova';
        font-weight: 700;
      }

      .st17, .st29 {
        font-size: 30px;
      }

      .st1 {
        stroke: #fff;
        stroke-width: 0px;
      }

      .st33, .st29, .st34, .st12, .st23 {
        fill: #7c02bb;
      }

      .st35, .st36 {
        font-size: 13px;
        letter-spacing: 0em;
      }

      .st35, .st37, .st30, .st31, .st21, .st22, .st38, .st25 {
        fill: #424242;
      }

      .st39 {
        fill: url(#linear-gradient);
      }

      .st7 {
        fill: #8c8c8c;
      }

      .st8 {
        fill: #828486;
      }

      .st40 {
        isolation: isolate;
      }

      .st41 {
        mask: url(#mask-1);
      }

      .st9 {
        fill: #397329;
      }

      .st42 {
        clip-path: url(#clippath-10);
      }

      .st43 {
        clip-path: url(#clippath-1);
      }

      .st44 {
        clip-path: url(#clippath-3);
      }

      .st45 {
        clip-path: url(#clippath-4);
      }

      .st46 {
        clip-path: url(#clippath-2);
      }

      .st47 {
        clip-path: url(#clippath-7);
      }

      .st48 {
        clip-path: url(#clippath-6);
      }

      .st49 {
        clip-path: url(#clippath-9);
      }

      .st50 {
        clip-path: url(#clippath-8);
      }

      .st51 {
        clip-path: url(#clippath-5);
      }

      .st37, .st30, .st52, .st53, .st18, .st34, .st20 {
        font-size: 18px;
      }

      .st54 {
        fill: #fff;
      }

      .st10, .st55 {
        fill: #4b2671;
      }

      .st22, .st24 {
        font-size: 16px;
      }

      .st11 {
        fill: #bdbec1;
      }

      .st53, .st18 {
        letter-spacing: 0em;
      }

      .st32 {
        font-size: 24px;
      }

      .st2 {
        stroke: #bbb;
        stroke-linecap: round;
        stroke-linejoin: round;
      }

      .st3 {
        stroke: #231f20;
      }

      .st13 {
        fill: #959799;
      }

      .st56 {
        letter-spacing: 0em;
      }

      .st57 {
        letter-spacing: 0em;
      }

      .st14 {
        fill: #ddd;
      }

      .st4 {
        stroke: #bababb;
        stroke-width: .5px;
      }

      .st58 {
        clip-path: url(#clippath);
      }

      .st25 {
        font-family: ProximaNova-Medium, 'Proxima Nova';
        font-weight: 500;
      }
    </style>
    <clipPath id="clippath">
      <path class="st0" d="M21.1,18.3h273.9c6.6,0,12,5.4,12,12v293.2c0,6.6-5.4,12-12,12H21.1c-6.6,0-12-5.4-12-12V30.3c0-6.6,5.4-12,12-12Z"/>
    </clipPath>
    <linearGradient id="linear-gradient" x1="-802.3" y1="1228.9" x2="-802.1" y2="1228.9" gradientTransform="translate(982879.6 1505528) scale(1225 -1225)" gradientUnits="userSpaceOnUse">
      <stop offset="0" stop-color="#449c46"/>
      <stop offset="0" stop-color="#449c46"/>
      <stop offset=".3" stop-color="#459848"/>
      <stop offset=".4" stop-color="#4a8e51"/>
      <stop offset=".6" stop-color="#537d60"/>
      <stop offset=".8" stop-color="#5f6574"/>
      <stop offset="1" stop-color="#6f478e"/>
      <stop offset="1" stop-color="#743e97"/>
      <stop offset="1" stop-color="#743e97"/>
    </linearGradient>
    <clipPath id="clippath-1">
      <rect class="st0" x="1.5" y="10.1" width="305.5" height="325.5"/>
    </clipPath>
    <clipPath id="clippath-2">
      <rect class="st0" x="9.1" y="37.8" width="72.3" height="72.3"/>
    </clipPath>
    <clipPath id="clippath-3">
      <rect class="st0" x="7.8" y="36.6" width="74.7" height="74.7"/>
    </clipPath>
    <clipPath id="clippath-4">
      <rect class="st0" x="9.1" y="37.8" width="72.3" height="72.3"/>
    </clipPath>
    <clipPath id="clippath-5">
      <rect class="st0" x="9.1" y="37.8" width="72.3" height="72.3"/>
    </clipPath>
    <mask id="mask" x="40.4" y="38.9" width="8.4" height="3.2" maskUnits="userSpaceOnUse">
      <g>
        <rect x="40.4" y="38.9" width="8.4" height="3.2"/>
        <g class="st40">
          <rect class="st54" x="40.4" y="38.9" width="8.4" height="3.2"/>
        </g>
      </g>
    </mask>
    <clipPath id="clippath-6">
      <rect class="st0" x="40.4" y="38.9" width="8.4" height="3.2"/>
    </clipPath>
    <clipPath id="clippath-7">
      <rect class="st0" x="9.1" y="37.8" width="72.3" height="72.3"/>
    </clipPath>
    <mask id="mask-1" x="21.1" y="43.7" width="46.8" height="64.3" maskUnits="userSpaceOnUse">
      <g>
        <rect x="21.1" y="43.7" width="46.8" height="64.3"/>
        <g class="st40">
          <rect class="st54" x="21.1" y="46.9" width="5.1" height="61.1"/>
        </g>
      </g>
    </mask>
    <clipPath id="clippath-8">
      <rect class="st0" x="21.1" y="43.7" width="46.8" height="64.3"/>
    </clipPath>
    <clipPath id="clippath-9">
      <polygon class="st0" points="54.5 45.6 54.5 50.4 63.3 49.1 63.2 98 30.7 102.5 30.8 53.7 39.6 52.5 39.6 47.7 26.2 49.6 26.1 108 67.8 102.1 67.9 43.7 54.5 45.6"/>
    </clipPath>
    <linearGradient id="linear-gradient1" x1="-821" y1="1214.9" x2="-820.1" y2="1214.9" gradientTransform="translate(74921.5 50649.3) rotate(90) scale(61.6)" gradientUnits="userSpaceOnUse">
      <stop offset="0" stop-color="#6cc04a"/>
      <stop offset="1" stop-color="#36864a"/>
    </linearGradient>
    <clipPath id="clippath-10">
      <polygon class="st0" points="30.8 53.7 30.7 102.5 63.2 98 63.3 49.1 30.8 53.7"/>
    </clipPath>
    <linearGradient id="linear-gradient2" x1="-840.6" y1="1200.8" x2="-839.7" y2="1200.8" gradientTransform="translate(35655.4 25002.8) rotate(90) scale(29.7)" gradientUnits="userSpaceOnUse">
      <stop offset="0" stop-color="#fff"/>
      <stop offset="1" stop-color="#ddd"/>
    </linearGradient>
  </defs>
  <text class="st24" transform="translate(7.6 375.4)"><tspan class="st33" x="0" y="0">•</tspan><tspan class="st38" x="5.7" y="0" xml:space="preserve">   The comparability of KEYTRUDA QSUB </tspan><tspan class="st38"><tspan x="19" y="19.2">and intravenous pembrolizumab was </tspan></tspan><tspan class="st38"><tspan x="19" y="38.4">established in Study MK-3475A-D77</tspan></tspan><tspan class="st33" x="0" y="67.6">•</tspan><tspan class="st38" x="5.7" y="67.6" xml:space="preserve">   Use of KEYTRUDA QSUB for the </tspan><tspan class="st38"><tspan x="19" y="86.8">approved indications is supported </tspan></tspan><tspan class="st38"><tspan x="19" y="106">by evidence from adequate and </tspan></tspan><tspan class="st38"><tspan x="19" y="125.2">well-controlled studies conducted </tspan></tspan><tspan class="st38"><tspan x="19" y="144.4">with intravenous pembrolizumab </tspan></tspan><tspan class="st38"><tspan x="19" y="163.6">across tumor types and additional </tspan></tspan><tspan class="st38"><tspan x="19" y="182.8">pharmacokinetic, efficacy, and safety </tspan></tspan><tspan class="st38"><tspan x="19" y="202">data from MK-3475A-D77 </tspan></tspan></text>
  <g>
    <g>
      <g class="st58">
        <rect class="st39" x="9.1" y="18.3" width="297.9" height="317.2"/>
      </g>
      <g class="st43">
        <rect class="st54" x="1.7" y="10.3" width="302" height="317" rx="12" ry="12"/>
        <rect class="st4" x="1.7" y="10.3" width="302" height="317" rx="12" ry="12"/>
      </g>
    </g>
    <text class="st32" transform="translate(87.2 69.8)"><tspan class="st33"><tspan x="0" y="0">Primary Endpoint:</tspan><tspan x="194.1" y="0"> </tspan></tspan><tspan class="st38"><tspan x="0" y="28.8">Pharmacokinetics</tspan></tspan></text>
    <text class="st24" transform="translate(27.6 141.9)"><tspan class="st33" x="0" y="0">•</tspan><tspan class="st38" x="5.7" y="0" xml:space="preserve">   Cycle 1 observed serum C</tspan></text>
    <text class="st22" transform="translate(227.3 147.3) scale(.6)"><tspan x="0" y="0">trough</tspan></text>
    <text class="st24" transform="translate(254.1 141.9)"><tspan class="st38" x="0" y="0"> </tspan><tspan class="st38" x="-207.4" y="19.2">(ie, pre-dose Cycle 2) showed </tspan><tspan class="st38" x="-207.4" y="38.4">a geometric mean ratio (GMR) </tspan><tspan class="st38" x="-207.4" y="57.6">of 1.06 (90% CI, 0.90, 1.15)</tspan><tspan class="st33" x="-226.4" y="86.8">•</tspan><tspan class="st38" x="-220.7" y="86.8" xml:space="preserve">   The GMR for Cycle 1 </tspan><tspan class="st38" x="-207.4" y="106">model-predicted AUC from </tspan><tspan class="st38" x="-207.4" y="125.2">0 to 21 days (AUC 0-21 d) </tspan><tspan class="st38" x="-207.4" y="144.4">was .91 (90% CI, 0.82, 1.31)</tspan></text>
    <g class="st46">
      <g class="st40">
        <g class="st44">
          <g class="st45">
            <rect class="st1" x="9.1" y="37.8" width="72.3" height="72.3"/>
          </g>
          <polygon class="st11" points="30.8 53.7 25.8 51 58.3 46.4 63.3 49.1 30.8 53.7"/>
          <polygon class="st9" points="54.5 50.4 49.5 47.7 49.5 42.9 54.5 45.6 54.5 50.4"/>
          <polygon class="st10" points="54.5 45.6 49.5 42.9 62.9 41 67.9 43.7 54.5 45.6"/>
          <polygon class="st6" points="39.6 47.7 34.6 45 49.5 42.9 54.5 45.6 39.6 47.7"/>
          <polygon class="st7" points="45.4 46.9 40.4 44.2 40.4 39.4 45.4 42.1 45.4 46.9"/>
          <polygon class="st14" points="48.8 41.6 48.8 46.4 45.4 46.9 45.4 42.1 48.8 41.6"/>
          <g class="st51">
            <g class="st5">
              <g class="st48">
                <polygon class="st15" points="43.8 38.9 40.4 39.4 45.4 42.1 48.8 41.6 43.8 38.9 43.8 38.9"/>
              </g>
            </g>
          </g>
          <polygon class="st8" points="39.6 52.5 34.6 49.8 34.6 45 39.6 47.7 39.6 52.5"/>
          <polygon class="st14" points="54.5 45.6 54.5 50.4 39.6 52.5 39.6 47.7 54.5 45.6"/>
          <polygon class="st13" points="30.7 102.5 25.7 99.8 25.8 51 30.8 53.7 30.7 102.5"/>
          <g class="st47">
            <g class="st41">
              <g class="st50">
                <polygon class="st55" points="21.1 104.8 21.1 105.3 26.1 108 26.2 49.6 21.2 46.9 21.1 104.8"/>
                <g class="st49">
                  <rect class="st27" x="26.1" y="43.7" width="41.8" height="64.3"/>
                </g>
              </g>
            </g>
          </g>
          <polygon class="st10" points="26.2 49.6 21.2 46.9 34.6 45 39.6 47.7 26.2 49.6"/>
          <polygon class="st12" points="54.5 45.6 67.9 43.7 67.8 102.1 26.1 108 26.2 49.6 39.6 47.7 39.6 52.5 30.8 53.7 30.7 102.5 63.2 98 63.3 49.1 54.5 50.4 54.5 45.6"/>
          <g class="st42">
            <rect class="st26" x="30.7" y="49.1" width="32.6" height="53.4"/>
          </g>
          <polygon class="st12" points="51.8 70.7 52.5 71.3 45.8 80 42 76.2 42.7 75.4 45.8 78.5 51.8 70.7"/>
          <polygon class="st12" points="51.8 59.3 52.5 59.9 45.8 68.6 42 64.8 42.8 64 45.8 67.1 51.8 59.3"/>
          <polygon class="st12" points="51.8 82.4 52.5 83 45.7 91.7 42 87.9 42.7 87.1 45.7 90.2 51.8 82.4"/>
        </g>
      </g>
    </g>
  </g>
  <g>
    <path class="st33" d="M8.8,1118.7c0-.9.8-1.7,1.7-1.7s1.7.8,1.7,1.7-.8,1.7-1.7,1.7-1.7-.8-1.7-1.7Z"/>
    <path class="st38" d="M27,1122.5v-10.7h7v1.2h-5.7v3.4h5.6v1.2h-5.6v3.7h5.7v1.2h-7Z"/>
    <path class="st38" d="M37.6,1122.5h-1.2v-6.7h-1.3v-1.1h1.3v-.6c0-1.6.9-2.5,2.2-2.5s.9,0,1.2.3l-.3.9c-.2-.1-.4-.2-.7-.2-.8,0-1.2.5-1.2,1.5v.6h1.6v1.1h-1.6v6.7ZM43.7,1115.9h-1.6v6.7h-1.2v-6.7h-1.3v-1.1h1.3v-.6c0-1.6.9-2.5,2.2-2.5s.9,0,1.2.3l-.3.9c-.2-.1-.4-.2-.7-.2-.8,0-1.2.5-1.2,1.5v.6h1.6v1.1ZM44.9,1112.7c0-.4.4-.8.8-.8s.8.4.8.8-.4.8-.8.8-.8-.4-.8-.8ZM45.1,1122.5v-7.7h1.2v7.7h-1.2Z"/>
    <path class="st38" d="M52.1,1114.6c1.4,0,2.2.6,2.8,1.3l-.8.7c-.5-.7-1.2-1-2-1-1.6,0-2.7,1.3-2.7,3s1,3,2.7,3,1.5-.3,2-1l.8.7c-.6.8-1.4,1.3-2.8,1.3-2.3,0-3.9-1.8-3.9-4.1s1.6-4,3.9-4Z"/>
    <path class="st38" d="M61.5,1122.5v-.9c-.6.7-1.5,1.1-2.6,1.1s-2.7-.9-2.7-2.6,1.4-2.5,2.7-2.5,1.9.3,2.6,1.1v-1.4c0-1-.8-1.6-2-1.6s-1.7.3-2.4,1.1l-.6-.8c.8-.9,1.8-1.3,3.1-1.3s3,.7,3,2.6v5.3h-1.2ZM61.5,1119.4c-.5-.6-1.3-1-2.1-1s-1.9.7-1.9,1.7.8,1.7,1.9,1.7,1.7-.3,2.1-1v-1.5Z"/>
    <path class="st38" d="M68.5,1114.6c1.4,0,2.2.6,2.8,1.3l-.8.7c-.5-.7-1.2-1-2-1-1.6,0-2.7,1.3-2.7,3s1,3,2.7,3,1.5-.3,2-1l.8.7c-.6.8-1.4,1.3-2.8,1.3-2.3,0-3.9-1.8-3.9-4.1s1.6-4,3.9-4Z"/>
    <path class="st38" d="M72.8,1124.5c.2,0,.5.1.7.1.5,0,.9-.2,1.2-.8l.5-1.2-3.2-7.8h1.3l2.6,6.3,2.6-6.3h1.3l-3.9,9.3c-.5,1.1-1.2,1.6-2.3,1.6-.3,0-.7,0-.9-.1l.2-1.1Z"/>
    <path class="st38" d="M84.5,1118.7c0-2.2,1.5-4,3.8-4s3.8,1.8,3.8,4-1.5,4.1-3.8,4.1-3.8-1.8-3.8-4.1ZM90.9,1118.7c0-1.6-.9-3-2.6-3s-2.6,1.4-2.6,3,.9,3,2.6,3,2.6-1.4,2.6-3Z"/>
    <path class="st38" d="M94.1,1122.5v-10.7h1.2v4.1c.6-.8,1.6-1.4,2.6-1.4,2,0,3.4,1.6,3.4,4.1s-1.4,4-3.4,4-2-.6-2.6-1.3v1.2h-1.2ZM95.3,1120.4c.4.7,1.4,1.2,2.3,1.2,1.6,0,2.5-1.3,2.5-3s-.9-3-2.5-3-1.9.6-2.3,1.2v3.5Z"/>
    <path class="st38" d="M103.3,1120.6c.5.6,1.5,1.1,2.5,1.1s1.8-.5,1.8-1.3-.9-1.1-2-1.4c-1.3-.3-2.8-.7-2.8-2.3s1-2.2,2.9-2.2,2.2.5,2.9,1.1l-.6.8c-.5-.6-1.3-1-2.3-1s-1.7.5-1.7,1.2.9,1,1.9,1.2c1.3.3,2.9.7,2.9,2.4s-1,2.3-3,2.3-2.3-.4-3.1-1.2l.6-.9Z"/>
    <path class="st38" d="M114.1,1114.6c2.3,0,3.7,1.8,3.7,4.1v.3h-6.3c0,1.5,1.1,2.7,2.8,2.7s1.8-.4,2.4-1l.6.8c-.8.8-1.8,1.2-3.1,1.2-2.3,0-3.9-1.6-3.9-4.1s1.6-4,3.8-4ZM111.6,1118.2h5.1c0-1.2-.8-2.6-2.5-2.6s-2.5,1.4-2.5,2.6Z"/>
    <path class="st38" d="M119.8,1122.5v-7.7h1.2v1.2c.6-.8,1.5-1.4,2.6-1.4v1.2c-.1,0-.3,0-.5,0-.7,0-1.7.6-2.1,1.2v5.5h-1.2Z"/>
    <path class="st38" d="M127.1,1122.5l-3.2-7.7h1.3l2.6,6.3,2.6-6.3h1.3l-3.2,7.7h-1.3Z"/>
    <path class="st38" d="M136.2,1114.6c2.3,0,3.7,1.8,3.7,4.1v.3h-6.3c0,1.5,1.1,2.7,2.8,2.7s1.8-.4,2.4-1l.6.8c-.8.8-1.8,1.2-3.1,1.2-2.3,0-3.9-1.6-3.9-4.1s1.6-4,3.8-4ZM133.7,1118.2h5.1c0-1.2-.8-2.6-2.5-2.6s-2.5,1.4-2.5,2.6Z"/>
    <path class="st38" d="M147.5,1122.5v-1.2c-.6.8-1.5,1.3-2.6,1.3-2,0-3.4-1.5-3.4-4s1.4-4.1,3.4-4.1,2,.5,2.6,1.4v-4.1h1.2v10.7h-1.2ZM147.5,1116.9c-.4-.7-1.4-1.2-2.3-1.2-1.6,0-2.5,1.3-2.5,3s.9,3,2.5,3,1.9-.5,2.3-1.2v-3.5Z"/>
    <path class="st38" d="M161.9,1122.5l-2-6.2-2,6.2h-1.2l-2.5-7.7h1.2l1.9,6.2,2-6.2h1l2,6.2,1.9-6.2h1.2l-2.5,7.7h-1.2Z"/>
    <path class="st38" d="M166.8,1112.7c0-.4.4-.8.8-.8s.8.4.8.8-.4.8-.8.8-.8-.4-.8-.8ZM167,1122.5v-7.7h1.2v7.7h-1.2Z"/>
    <path class="st38" d="M170.8,1120.9v-5.1h-1.3v-1.1h1.3v-2.1h1.2v2.1h1.6v1.1h-1.6v4.8c0,.6.3,1,.8,1s.7-.1.8-.3l.4.9c-.3.3-.7.5-1.4.5-1.1,0-1.7-.7-1.7-1.8Z"/>
    <path class="st38" d="M180.5,1122.5v-5.1c0-1.4-.7-1.8-1.7-1.8s-1.8.6-2.3,1.2v5.7h-1.2v-10.7h1.2v4.1c.5-.6,1.6-1.3,2.8-1.3s2.5.8,2.5,2.5v5.5h-1.2Z"/>
    <path class="st38" d="M34.3,1141.7l-4-4.8-1.1,1.2v3.6h-1.3v-10.7h1.3v5.5l4.7-5.5h1.7l-4.5,5.1,4.8,5.6h-1.6Z"/>
    <path class="st38" d="M37.5,1141.7v-10.7h7v1.2h-5.7v3.4h5.6v1.2h-5.6v3.7h5.7v1.2h-7Z"/>
    <path class="st38" d="M49.7,1141.7v-4.5l-4.2-6.2h1.6l3.3,5,3.3-5h1.6l-4.2,6.2v4.5h-1.3Z"/>
    <path class="st38" d="M59.3,1141.7v-9.5h-3.4v-1.2h8.1v1.2h-3.4v9.5h-1.3Z"/>
    <path class="st38" d="M71.9,1141.7l-2.7-4.2h-2.1v4.2h-1.3v-10.7h4.3c2,0,3.3,1.2,3.3,3.2s-1.3,3-2.8,3.1l2.9,4.4h-1.6ZM69.9,1132.2h-2.8v4.1h2.8c1.3,0,2.1-.8,2.1-2s-.9-2-2.1-2Z"/>
    <path class="st38" d="M75.5,1131.1h1.3v6.5c0,2,1.1,3.2,3,3.2s3-1.2,3-3.2v-6.5h1.3v6.5c0,2.7-1.5,4.4-4.4,4.4s-4.4-1.7-4.4-4.3v-6.5Z"/>
    <path class="st38" d="M86.7,1141.7v-10.7h3.7c3.3,0,5.5,2.3,5.5,5.3s-2.2,5.3-5.5,5.3h-3.7ZM88,1140.5h2.3c2.6,0,4.1-1.9,4.1-4.1s-1.5-4.2-4.1-4.2h-2.3v8.3Z"/>
    <path class="st38" d="M104.9,1141.7l-.9-2.4h-5.4l-.9,2.4h-1.5l4.3-10.7h1.6l4.3,10.7h-1.5ZM101.3,1132.2l-2.3,5.9h4.6l-2.3-5.9Z"/>
    <path class="st38" d="M120.6,1140.3l1,1.1-.9.8-1-1.1c-.8.5-1.8.8-2.9.8-3.2,0-5.3-2.4-5.3-5.5s2.1-5.5,5.3-5.5,5.3,2.4,5.3,5.5-.5,2.9-1.5,3.9ZM118.8,1140.2l-1.5-1.6.9-.8,1.5,1.6c.6-.8,1-1.8,1-3,0-2.5-1.5-4.3-3.9-4.3s-3.9,1.8-3.9,4.3,1.5,4.3,3.9,4.3,1.5-.2,2-.5Z"/>
    <path class="st38" d="M124.3,1139.2c.7.8,1.9,1.5,3.4,1.5s2.5-1,2.5-1.8c0-1.3-1.3-1.6-2.7-2-1.7-.4-3.6-.9-3.6-3s1.6-3,3.7-3,2.9.5,3.8,1.5l-.8,1c-.8-.9-1.9-1.3-3.1-1.3s-2.2.7-2.2,1.7,1.2,1.4,2.6,1.8c1.7.5,3.7,1,3.7,3.2s-1.1,3.1-3.9,3.1-3.2-.7-4.1-1.7l.8-1Z"/>
    <path class="st38" d="M133.5,1131.1h1.3v6.5c0,2,1.1,3.2,3,3.2s3-1.2,3-3.2v-6.5h1.3v6.5c0,2.7-1.5,4.4-4.4,4.4s-4.4-1.7-4.4-4.3v-6.5Z"/>
    <path class="st38" d="M144.7,1141.7v-10.7h4.8c1.9,0,3,1.1,3,2.7s-.9,2.2-1.9,2.4c1.1.2,2.1,1.3,2.1,2.6s-1.1,2.9-3.1,2.9h-4.9ZM146.1,1135.7h3.2c1.2,0,1.8-.7,1.8-1.7s-.6-1.7-1.8-1.7h-3.2v3.4ZM146.1,1140.5h3.3c1.2,0,2-.7,2-1.8s-.7-1.8-2-1.8h-3.3v3.7Z"/>
    <path class="st38" d="M165.6,1141.7l-2-6.2-2,6.2h-1.2l-2.5-7.7h1.2l1.9,6.2,2-6.2h1l2,6.2,1.9-6.2h1.2l-2.5,7.7h-1.2Z"/>
    <path class="st38" d="M175.5,1141.7v-.9c-.6.7-1.5,1.1-2.6,1.1s-2.7-.9-2.7-2.6,1.4-2.5,2.7-2.5,1.9.3,2.6,1.1v-1.4c0-1-.8-1.6-2-1.6s-1.7.3-2.4,1.1l-.6-.8c.8-.9,1.8-1.3,3.1-1.3s3,.7,3,2.6v5.3h-1.2ZM175.5,1138.6c-.5-.6-1.3-1-2.1-1s-1.9.7-1.9,1.7.8,1.7,1.9,1.7,1.7-.3,2.1-1v-1.5Z"/>
    <path class="st38" d="M179,1139.8c.5.6,1.5,1.1,2.5,1.1s1.8-.5,1.8-1.3-.9-1.1-2-1.4c-1.3-.3-2.8-.7-2.8-2.3s1-2.2,2.9-2.2,2.2.5,2.9,1.1l-.6.8c-.5-.6-1.3-1-2.3-1s-1.7.5-1.7,1.2.9,1,1.9,1.2c1.3.3,2.9.7,2.9,2.4s-1,2.3-3,2.3-2.3-.4-3.1-1.2l.6-.9Z"/>
    <path class="st38" d="M194,1133.8c1.4,0,2.2.6,2.8,1.3l-.8.7c-.5-.7-1.2-1-2-1-1.6,0-2.7,1.3-2.7,3s1,3,2.7,3,1.5-.3,2-1l.8.7c-.6.8-1.4,1.3-2.8,1.3-2.3,0-3.9-1.8-3.9-4.1s1.6-4,3.9-4Z"/>
    <path class="st38" d="M198.1,1137.9c0-2.2,1.5-4,3.8-4s3.8,1.8,3.8,4-1.5,4.1-3.8,4.1-3.8-1.8-3.8-4.1ZM204.5,1137.9c0-1.6-.9-3-2.6-3s-2.6,1.4-2.6,3,.9,3,2.6,3,2.6-1.4,2.6-3Z"/>
    <path class="st38" d="M212.9,1141.7v-5.1c0-1.4-.7-1.8-1.7-1.8s-1.8.6-2.3,1.2v5.7h-1.2v-7.7h1.2v1.1c.5-.6,1.6-1.3,2.8-1.3s2.5.8,2.5,2.5v5.4h-1.2Z"/>
    <path class="st38" d="M216.5,1139.8c.5.6,1.5,1.1,2.5,1.1s1.8-.5,1.8-1.3-.9-1.1-2-1.4c-1.3-.3-2.8-.7-2.8-2.3s1-2.2,2.9-2.2,2.2.5,2.9,1.1l-.6.8c-.5-.6-1.3-1-2.3-1s-1.7.5-1.7,1.2.9,1,1.9,1.2c1.3.3,2.9.7,2.9,2.4s-1,2.3-3,2.3-2.3-.4-3.1-1.2l.6-.9Z"/>
    <path class="st38" d="M223.8,1131.9c0-.4.4-.8.8-.8s.8.4.8.8-.4.8-.8.8-.8-.4-.8-.8ZM224,1141.7v-7.7h1.2v7.7h-1.2Z"/>
    <path class="st38" d="M227.5,1139.8c.5.6,1.5,1.1,2.5,1.1s1.8-.5,1.8-1.3-.9-1.1-2-1.4c-1.3-.3-2.8-.7-2.8-2.3s1-2.2,2.9-2.2,2.2.5,2.9,1.1l-.6.8c-.5-.6-1.3-1-2.3-1s-1.7.5-1.7,1.2.9,1,1.9,1.2c1.3.3,2.9.7,2.9,2.4s-1,2.3-3,2.3-2.3-.4-3.1-1.2l.6-.9Z"/>
    <path class="st38" d="M235.2,1140.1v-5.1h-1.3v-1.1h1.3v-2.1h1.2v2.1h1.6v1.1h-1.6v4.8c0,.6.3,1,.8,1s.7-.1.8-.3l.4.9c-.3.3-.7.5-1.4.5-1.1,0-1.7-.7-1.7-1.8Z"/>
    <path class="st38" d="M243.1,1133.8c2.3,0,3.7,1.8,3.7,4.1v.3h-6.3c0,1.5,1.1,2.7,2.8,2.7s1.8-.4,2.4-1l.6.8c-.8.8-1.8,1.2-3.1,1.2-2.3,0-3.9-1.6-3.9-4.1s1.6-4,3.8-4ZM240.5,1137.4h5.1c0-1.2-.8-2.6-2.5-2.6s-2.5,1.4-2.5,2.6Z"/>
    <path class="st38" d="M253.9,1141.7v-5.1c0-1.4-.7-1.8-1.7-1.8s-1.8.6-2.3,1.2v5.7h-1.2v-7.7h1.2v1.1c.5-.6,1.6-1.3,2.8-1.3s2.5.8,2.5,2.5v5.4h-1.2Z"/>
    <path class="st38" d="M257.8,1140.1v-5.1h-1.3v-1.1h1.3v-2.1h1.2v2.1h1.6v1.1h-1.6v4.8c0,.6.3,1,.8,1s.7-.1.8-.3l.4.9c-.3.3-.7.5-1.4.5-1.1,0-1.7-.7-1.7-1.8Z"/>
    <path class="st38" d="M34.5,1160.9l-2-6.2-2,6.2h-1.2l-2.5-7.7h1.2l1.9,6.2,2-6.2h1l2,6.2,1.9-6.2h1.2l-2.5,7.7h-1.2Z"/>
    <path class="st38" d="M39.4,1151.1c0-.4.4-.8.8-.8s.8.4.8.8-.4.8-.8.8-.8-.4-.8-.8ZM39.6,1160.9v-7.7h1.2v7.7h-1.2Z"/>
    <path class="st38" d="M43.4,1159.3v-5.1h-1.3v-1.1h1.3v-2.1h1.2v2.1h1.6v1.1h-1.6v4.8c0,.6.3,1,.8,1s.7-.1.8-.3l.4.9c-.3.3-.7.5-1.4.5-1.1,0-1.7-.7-1.7-1.8Z"/>
    <path class="st38" d="M53.1,1160.9v-5.1c0-1.4-.7-1.8-1.7-1.8s-1.8.6-2.3,1.2v5.7h-1.2v-10.7h1.2v4.1c.5-.6,1.6-1.3,2.8-1.3s2.5.8,2.5,2.5v5.5h-1.2Z"/>
    <path class="st38" d="M60.9,1160.9v-10.7h1.3v10.7h-1.3Z"/>
    <path class="st38" d="M67.9,1160.9l-4.3-10.7h1.5l3.6,9.2,3.6-9.2h1.5l-4.3,10.7h-1.6Z"/>
    <path class="st38" d="M85.8,1160.9l-4-4.8-1.1,1.2v3.6h-1.3v-10.7h1.3v5.5l4.7-5.5h1.7l-4.5,5.1,4.8,5.6h-1.6Z"/>
    <path class="st38" d="M89,1160.9v-10.7h7v1.2h-5.7v3.4h5.6v1.2h-5.6v3.7h5.7v1.2h-7Z"/>
    <path class="st38" d="M101.2,1160.9v-4.5l-4.2-6.2h1.6l3.3,5,3.3-5h1.6l-4.2,6.2v4.5h-1.3Z"/>
    <path class="st38" d="M110.7,1160.9v-9.5h-3.4v-1.2h8.1v1.2h-3.4v9.5h-1.3Z"/>
    <path class="st38" d="M123.4,1160.9l-2.7-4.2h-2.1v4.2h-1.3v-10.7h4.3c2,0,3.3,1.2,3.3,3.2s-1.3,3-2.8,3.1l2.9,4.4h-1.6ZM121.4,1151.4h-2.8v4.1h2.8c1.3,0,2.1-.8,2.1-2s-.9-2-2.1-2Z"/>
    <path class="st38" d="M127,1150.3h1.3v6.5c0,2,1.1,3.2,3,3.2s3-1.2,3-3.2v-6.5h1.3v6.5c0,2.7-1.5,4.4-4.4,4.4s-4.4-1.7-4.4-4.3v-6.5Z"/>
    <path class="st38" d="M138.2,1160.9v-10.7h3.7c3.3,0,5.5,2.3,5.5,5.3s-2.2,5.3-5.5,5.3h-3.7ZM139.5,1159.7h2.3c2.6,0,4.1-1.9,4.1-4.1s-1.5-4.2-4.1-4.2h-2.3v8.3Z"/>
    <path class="st38" d="M156.4,1160.9l-.9-2.4h-5.4l-.9,2.4h-1.5l4.3-10.7h1.6l4.3,10.7h-1.5ZM152.8,1151.4l-2.3,5.9h4.6l-2.3-5.9Z"/>
    <path class="st33" d="M8.8,1186.3c0-.9.8-1.7,1.7-1.7s1.7.8,1.7,1.7-.8,1.7-1.7,1.7-1.7-.8-1.7-1.7Z"/>
    <path class="st38" d="M27,1190.1v-10.7h7v1.2h-5.7v3.4h5.6v1.2h-5.6v3.7h5.7v1.2h-7Z"/>
    <path class="st38" d="M37.8,1190.1h-1.2v-6.7h-1.3v-1.1h1.3v-.6c0-1.6.9-2.5,2.2-2.5s.9,0,1.2.3l-.3.9c-.2-.1-.4-.2-.7-.2-.8,0-1.2.5-1.2,1.5v.6h1.6v1.1h-1.6v6.7ZM43.8,1183.5h-1.6v6.7h-1.2v-6.7h-1.3v-1.1h1.3v-.6c0-1.6.9-2.5,2.2-2.5s.9,0,1.2.3l-.3.9c-.2-.1-.4-.2-.7-.2-.8,0-1.2.5-1.2,1.5v.6h1.6v1.1ZM45.1,1180.3c0-.4.4-.8.8-.8s.8.4.8.8-.4.8-.8.8-.8-.4-.8-.8ZM45.3,1190.1v-7.7h1.2v7.7h-1.2Z"/>
    <path class="st38" d="M52.5,1182.2c1.4,0,2.2.6,2.8,1.3l-.8.7c-.5-.7-1.2-1-2-1-1.6,0-2.7,1.3-2.7,3s1,3,2.7,3,1.5-.3,2-1l.8.7c-.6.8-1.4,1.3-2.8,1.3-2.3,0-3.9-1.8-3.9-4.1s1.6-4,3.9-4Z"/>
    <path class="st38" d="M62,1190.1v-.9c-.6.7-1.5,1.1-2.6,1.1s-2.7-.9-2.7-2.6,1.4-2.5,2.7-2.5,1.9.3,2.6,1.1v-1.4c0-1-.8-1.6-2-1.6s-1.7.3-2.4,1.1l-.6-.8c.8-.9,1.8-1.3,3.1-1.3s3,.7,3,2.6v5.3h-1.2ZM62,1187c-.5-.6-1.3-1-2.1-1s-1.9.7-1.9,1.7.8,1.7,1.9,1.7,1.7-.3,2.1-1v-1.5Z"/>
    <path class="st38" d="M69.1,1182.2c1.4,0,2.2.6,2.8,1.3l-.8.7c-.5-.7-1.2-1-2-1-1.6,0-2.7,1.3-2.7,3s1,3,2.7,3,1.5-.3,2-1l.8.7c-.6.8-1.4,1.3-2.8,1.3-2.3,0-3.9-1.8-3.9-4.1s1.6-4,3.9-4Z"/>
    <path class="st38" d="M73.6,1192.1c.2,0,.5.1.7.1.5,0,.9-.2,1.2-.8l.5-1.2-3.2-7.8h1.3l2.6,6.3,2.6-6.3h1.3l-3.9,9.3c-.5,1.1-1.2,1.6-2.3,1.6-.3,0-.7,0-.9-.1l.2-1.1Z"/>
    <path class="st38" d="M92.5,1190.1l-2-6.2-2,6.2h-1.2l-2.5-7.7h1.2l1.9,6.2,2-6.2h1l2,6.2,1.9-6.2h1.2l-2.5,7.7h-1.2Z"/>
    <path class="st38" d="M102.5,1190.1v-.9c-.6.7-1.5,1.1-2.6,1.1s-2.7-.9-2.7-2.6,1.4-2.5,2.7-2.5,1.9.3,2.6,1.1v-1.4c0-1-.8-1.6-2-1.6s-1.7.3-2.4,1.1l-.6-.8c.8-.9,1.8-1.3,3.1-1.3s3,.7,3,2.6v5.3h-1.2ZM102.5,1187c-.5-.6-1.3-1-2.1-1s-1.9.7-1.9,1.7.8,1.7,1.9,1.7,1.7-.3,2.1-1v-1.5Z"/>
    <path class="st38" d="M106.2,1188.2c.5.6,1.5,1.1,2.5,1.1s1.8-.5,1.8-1.3-.9-1.1-2-1.4c-1.3-.3-2.8-.7-2.8-2.3s1-2.2,2.9-2.2,2.2.5,2.9,1.1l-.6.8c-.5-.6-1.3-1-2.3-1s-1.7.5-1.7,1.2.9,1,1.9,1.2c1.3.3,2.9.7,2.9,2.4s-1,2.3-3,2.3-2.3-.4-3.1-1.2l.6-.9Z"/>
    <path class="st38" d="M122.7,1190.1v-.9c-.6.7-1.5,1.1-2.6,1.1s-2.7-.9-2.7-2.6,1.4-2.5,2.7-2.5,1.9.3,2.6,1.1v-1.4c0-1-.8-1.6-2-1.6s-1.7.3-2.4,1.1l-.6-.8c.8-.9,1.8-1.3,3.1-1.3s3,.7,3,2.6v5.3h-1.2ZM122.7,1187c-.5-.6-1.3-1-2.1-1s-1.9.7-1.9,1.7.8,1.7,1.9,1.7,1.7-.3,2.1-1v-1.5Z"/>
    <path class="st38" d="M136,1190.1v-1.2c-.6.8-1.5,1.3-2.6,1.3-2,0-3.4-1.5-3.4-4s1.4-4.1,3.4-4.1,2,.5,2.6,1.4v-4.1h1.2v10.7h-1.2ZM136,1184.5c-.4-.7-1.4-1.2-2.3-1.2-1.6,0-2.5,1.3-2.5,3s.9,3,2.5,3,1.9-.5,2.3-1.2v-3.5Z"/>
    <path class="st38" d="M143.1,1182.2c2.3,0,3.7,1.8,3.7,4.1v.3h-6.3c0,1.5,1.1,2.7,2.8,2.7s1.8-.4,2.4-1l.6.8c-.8.8-1.8,1.2-3.1,1.2-2.3,0-3.9-1.6-3.9-4.1s1.6-4,3.8-4ZM140.6,1185.8h5.1c0-1.2-.8-2.6-2.5-2.6s-2.5,1.4-2.5,2.6Z"/>
    <path class="st38" d="M148.9,1188.2c.5.6,1.5,1.1,2.5,1.1s1.8-.5,1.8-1.3-.9-1.1-2-1.4c-1.3-.3-2.8-.7-2.8-2.3s1-2.2,2.9-2.2,2.2.5,2.9,1.1l-.6.8c-.5-.6-1.3-1-2.3-1s-1.7.5-1.7,1.2.9,1,1.9,1.2c1.3.3,2.9.7,2.9,2.4s-1,2.3-3,2.3-2.3-.4-3.1-1.2l.6-.9Z"/>
    <path class="st38" d="M160,1182.2c1.4,0,2.2.6,2.8,1.3l-.8.7c-.5-.7-1.2-1-2-1-1.6,0-2.7,1.3-2.7,3s1,3,2.7,3,1.5-.3,2-1l.8.7c-.6.8-1.4,1.3-2.8,1.3-2.3,0-3.9-1.8-3.9-4.1s1.6-4,3.9-4Z"/>
    <path class="st38" d="M164.6,1190.1v-7.7h1.2v1.2c.6-.8,1.5-1.4,2.6-1.4v1.2c-.1,0-.3,0-.5,0-.7,0-1.7.6-2.1,1.2v5.5h-1.2Z"/>
    <path class="st38" d="M169.9,1180.3c0-.4.4-.8.8-.8s.8.4.8.8-.4.8-.8.8-.8-.4-.8-.8ZM170.1,1190.1v-7.7h1.2v7.7h-1.2Z"/>
    <path class="st38" d="M175.1,1193.1h-1.2v-10.7h1.2v1.2c.6-.8,1.5-1.3,2.6-1.3,2,0,3.4,1.5,3.4,4s-1.4,4.1-3.4,4.1-2-.5-2.6-1.4v4.1ZM177.4,1183.3c-.9,0-1.9.6-2.3,1.2v3.5c.4.7,1.4,1.2,2.3,1.2,1.6,0,2.5-1.3,2.5-3s-.9-3-2.5-3Z"/>
    <path class="st38" d="M183.4,1188.5v-5.1h-1.3v-1.1h1.3v-2.1h1.2v2.1h1.6v1.1h-1.6v4.8c0,.6.3,1,.8,1s.7-.1.8-.3l.4.9c-.3.3-.7.5-1.4.5-1.1,0-1.7-.7-1.7-1.8Z"/>
    <path class="st38" d="M187.9,1180.3c0-.4.4-.8.8-.8s.8.4.8.8-.4.8-.8.8-.8-.4-.8-.8ZM188.1,1190.1v-7.7h1.2v7.7h-1.2Z"/>
    <path class="st38" d="M193.9,1190.1l-3.2-7.7h1.3l2.6,6.3,2.6-6.3h1.3l-3.2,7.7h-1.3Z"/>
    <path class="st38" d="M203.2,1182.2c2.3,0,3.7,1.8,3.7,4.1v.3h-6.3c0,1.5,1.1,2.7,2.8,2.7s1.8-.4,2.4-1l.6.8c-.8.8-1.8,1.2-3.1,1.2-2.3,0-3.9-1.6-3.9-4.1s1.6-4,3.8-4ZM200.7,1185.8h5.1c0-1.2-.8-2.6-2.5-2.6s-2.5,1.4-2.5,2.6Z"/>
    <path class="st38" d="M217.8,1190.1v-.9c-.6.7-1.5,1.1-2.6,1.1s-2.7-.9-2.7-2.6,1.4-2.5,2.7-2.5,1.9.3,2.6,1.1v-1.4c0-1-.8-1.6-2-1.6s-1.7.3-2.4,1.1l-.6-.8c.8-.9,1.8-1.3,3.1-1.3s3,.7,3,2.6v5.3h-1.2ZM217.8,1187c-.5-.6-1.3-1-2.1-1s-1.9.7-1.9,1.7.8,1.7,1.9,1.7,1.7-.3,2.1-1v-1.5Z"/>
    <path class="st38" d="M226.8,1190.1v-5.1c0-1.4-.7-1.8-1.7-1.8s-1.8.6-2.3,1.2v5.7h-1.2v-7.7h1.2v1.1c.5-.6,1.6-1.3,2.8-1.3s2.5.8,2.5,2.5v5.4h-1.2Z"/>
    <path class="st38" d="M235.4,1190.1v-.9c-.6.7-1.5,1.1-2.6,1.1s-2.7-.9-2.7-2.6,1.4-2.5,2.7-2.5,1.9.3,2.6,1.1v-1.4c0-1-.8-1.6-2-1.6s-1.7.3-2.4,1.1l-.6-.8c.8-.9,1.8-1.3,3.1-1.3s3,.7,3,2.6v5.3h-1.2ZM235.4,1187c-.5-.6-1.3-1-2.1-1s-1.9.7-1.9,1.7.8,1.7,1.9,1.7,1.7-.3,2.1-1v-1.5Z"/>
    <path class="st38" d="M239.2,1190.1v-10.7h1.2v10.7h-1.2Z"/>
    <path class="st38" d="M242.7,1192.1c.2,0,.5.1.7.1.5,0,.9-.2,1.2-.8l.5-1.2-3.2-7.8h1.3l2.6,6.3,2.6-6.3h1.3l-3.9,9.3c-.5,1.1-1.2,1.6-2.3,1.6-.3,0-.7,0-.9-.1l.2-1.1Z"/>
    <path class="st38" d="M250.9,1188.2c.5.6,1.5,1.1,2.5,1.1s1.8-.5,1.8-1.3-.9-1.1-2-1.4c-1.3-.3-2.8-.7-2.8-2.3s1-2.2,2.9-2.2,2.2.5,2.9,1.1l-.6.8c-.5-.6-1.3-1-2.3-1s-1.7.5-1.7,1.2.9,1,1.9,1.2c1.3.3,2.9.7,2.9,2.4s-1,2.3-3,2.3-2.3-.4-3.1-1.2l.6-.9Z"/>
    <path class="st38" d="M258.3,1180.3c0-.4.4-.8.8-.8s.8.4.8.8-.4.8-.8.8-.8-.4-.8-.8ZM258.5,1190.1v-7.7h1.2v7.7h-1.2Z"/>
    <path class="st38" d="M262.2,1188.2c.5.6,1.5,1.1,2.5,1.1s1.8-.5,1.8-1.3-.9-1.1-2-1.4c-1.3-.3-2.8-.7-2.8-2.3s1-2.2,2.9-2.2,2.2.5,2.9,1.1l-.6.8c-.5-.6-1.3-1-2.3-1s-1.7.5-1.7,1.2.9,1,1.9,1.2c1.3.3,2.9.7,2.9,2.4s-1,2.3-3,2.3-2.3-.4-3.1-1.2l.6-.9Z"/>
    <path class="st38" d="M32.7,1209.3v-.9c-.6.7-1.5,1.1-2.6,1.1s-2.7-.9-2.7-2.6,1.4-2.5,2.7-2.5,1.9.3,2.6,1.1v-1.4c0-1-.8-1.6-2-1.6s-1.7.3-2.4,1.1l-.6-.8c.8-.9,1.8-1.3,3.1-1.3s3,.7,3,2.6v5.3h-1.2ZM32.7,1206.2c-.5-.6-1.3-1-2.1-1s-1.9.7-1.9,1.7.8,1.7,1.9,1.7,1.7-.3,2.1-1v-1.5Z"/>
    <path class="st38" d="M41.6,1209.3v-5.1c0-1.4-.7-1.8-1.7-1.8s-1.8.6-2.3,1.2v5.7h-1.2v-7.7h1.2v1.1c.5-.6,1.6-1.3,2.8-1.3s2.5.8,2.5,2.5v5.4h-1.2Z"/>
    <path class="st38" d="M51,1209.3v-1.2c-.6.8-1.5,1.3-2.6,1.3-2,0-3.4-1.5-3.4-4s1.4-4.1,3.4-4.1,2,.5,2.6,1.4v-4.1h1.2v10.7h-1.2ZM51,1203.7c-.4-.7-1.4-1.2-2.3-1.2-1.6,0-2.5,1.3-2.5,3s.9,3,2.5,3,1.9-.5,2.3-1.2v-3.5Z"/>
    <path class="st38" d="M65.4,1209.3l-2-6.2-2,6.2h-1.2l-2.5-7.7h1.2l1.9,6.2,2-6.2h1l2,6.2,1.9-6.2h1.2l-2.5,7.7h-1.2Z"/>
    <path class="st38" d="M75.5,1209.3v-.9c-.6.7-1.5,1.1-2.6,1.1s-2.7-.9-2.7-2.6,1.4-2.5,2.7-2.5,1.9.3,2.6,1.1v-1.4c0-1-.8-1.6-2-1.6s-1.7.3-2.4,1.1l-.6-.8c.8-.9,1.8-1.3,3.1-1.3s3,.7,3,2.6v5.3h-1.2ZM75.5,1206.2c-.5-.6-1.3-1-2.1-1s-1.9.7-1.9,1.7.8,1.7,1.9,1.7,1.7-.3,2.1-1v-1.5Z"/>
    <path class="st38" d="M79.2,1207.4c.5.6,1.5,1.1,2.5,1.1s1.8-.5,1.8-1.3-.9-1.1-2-1.4c-1.3-.3-2.8-.7-2.8-2.3s1-2.2,2.9-2.2,2.2.5,2.9,1.1l-.6.8c-.5-.6-1.3-1-2.3-1s-1.7.5-1.7,1.2.9,1,1.9,1.2c1.3.3,2.9.7,2.9,2.4s-1,2.3-3,2.3-2.3-.4-3.1-1.2l.6-.9Z"/>
    <path class="st38" d="M96,1209.3v-5.1c0-1.4-.7-1.8-1.7-1.8s-1.8.6-2.3,1.2v5.7h-1.2v-7.7h1.2v1.1c.5-.6,1.6-1.3,2.8-1.3s2.5.8,2.5,2.5v5.4h-1.2Z"/>
    <path class="st38" d="M99.3,1205.5c0-2.2,1.5-4,3.8-4s3.8,1.8,3.8,4-1.5,4.1-3.8,4.1-3.8-1.8-3.8-4.1ZM105.7,1205.5c0-1.6-.9-3-2.6-3s-2.6,1.4-2.6,3,.9,3,2.6,3,2.6-1.4,2.6-3Z"/>
    <path class="st38" d="M109.4,1207.7v-5.1h-1.3v-1.1h1.3v-2.1h1.2v2.1h1.6v1.1h-1.6v4.8c0,.6.3,1,.8,1s.7-.1.8-.3l.4.9c-.3.3-.7.5-1.4.5-1.1,0-1.7-.7-1.7-1.8Z"/>
    <path class="st38" d="M123.2,1209.3v-1.1c-.6.7-1.6,1.3-2.8,1.3s-2.5-.8-2.5-2.5v-5.5h1.2v5.1c0,1.4.7,1.8,1.7,1.8s1.8-.5,2.3-1.2v-5.7h1.2v7.7h-1.2Z"/>
    <path class="st38" d="M126.9,1207.4c.5.6,1.5,1.1,2.5,1.1s1.8-.5,1.8-1.3-.9-1.1-2-1.4c-1.3-.3-2.8-.7-2.8-2.3s1-2.2,2.9-2.2,2.2.5,2.9,1.1l-.6.8c-.5-.6-1.3-1-2.3-1s-1.7.5-1.7,1.2.9,1,1.9,1.2c1.3.3,2.9.7,2.9,2.4s-1,2.3-3,2.3-2.3-.4-3.1-1.2l.6-.9Z"/>
    <path class="st38" d="M137.9,1201.4c2.3,0,3.7,1.8,3.7,4.1v.3h-6.3c0,1.5,1.1,2.7,2.8,2.7s1.8-.4,2.4-1l.6.8c-.8.8-1.8,1.2-3.1,1.2-2.3,0-3.9-1.6-3.9-4.1s1.6-4,3.8-4ZM135.3,1205h5.1c0-1.2-.8-2.6-2.5-2.6s-2.5,1.4-2.5,2.6Z"/>
    <path class="st38" d="M149.3,1209.3v-1.2c-.6.8-1.5,1.3-2.6,1.3-2,0-3.4-1.5-3.4-4s1.4-4.1,3.4-4.1,2,.5,2.6,1.4v-4.1h1.2v10.7h-1.2ZM149.3,1203.7c-.4-.7-1.4-1.2-2.3-1.2-1.6,0-2.5,1.3-2.5,3s.9,3,2.5,3,1.9-.5,2.3-1.2v-3.5Z"/>
    <path class="st38" d="M157.3,1207.7v-5.1h-1.3v-1.1h1.3v-2.1h1.2v2.1h1.6v1.1h-1.6v4.8c0,.6.3,1,.8,1s.7-.1.8-.3l.4.9c-.3.3-.7.5-1.4.5-1.1,0-1.7-.7-1.7-1.8Z"/>
    <path class="st38" d="M161.5,1205.5c0-2.2,1.5-4,3.8-4s3.8,1.8,3.8,4-1.5,4.1-3.8,4.1-3.8-1.8-3.8-4.1ZM167.8,1205.5c0-1.6-.9-3-2.6-3s-2.6,1.4-2.6,3,.9,3,2.6,3,2.6-1.4,2.6-3Z"/>
    <path class="st38" d="M176.7,1202.7v6.7h-1.2v-6.7h-1.3v-1.1h1.3v-.6c0-1.6.9-2.5,2.2-2.5s.9,0,1.2.3l-.3.9c-.2-.1-.4-.2-.7-.2-.8,0-1.2.5-1.2,1.5v.6h1.6v1.1h-1.6Z"/>
    <path class="st38" d="M179.4,1205.5c0-2.2,1.5-4,3.8-4s3.8,1.8,3.8,4-1.5,4.1-3.8,4.1-3.8-1.8-3.8-4.1ZM185.8,1205.5c0-1.6-.9-3-2.6-3s-2.6,1.4-2.6,3,.9,3,2.6,3,2.6-1.4,2.6-3Z"/>
    <path class="st38" d="M189.2,1209.3v-7.7h1.2v1.2c.6-.8,1.5-1.4,2.6-1.4v1.2c-.1,0-.3,0-.5,0-.7,0-1.7.6-2.1,1.2v5.5h-1.2Z"/>
    <path class="st38" d="M204,1209.3v-5.2c0-1-.4-1.6-1.4-1.6s-1.6.6-2,1.2v5.7h-1.2v-5.2c0-1-.4-1.6-1.4-1.6s-1.6.6-2,1.2v5.7h-1.2v-7.7h1.2v1.1c.3-.5,1.4-1.3,2.5-1.3s1.9.6,2.1,1.4c.4-.7,1.5-1.4,2.6-1.4s2.2.8,2.2,2.3v5.6h-1.2Z"/>
    <path class="st38" d="M212.6,1209.3v-.9c-.6.7-1.5,1.1-2.6,1.1s-2.7-.9-2.7-2.6,1.4-2.5,2.7-2.5,1.9.3,2.6,1.1v-1.4c0-1-.8-1.6-2-1.6s-1.7.3-2.4,1.1l-.6-.8c.8-.9,1.8-1.3,3.1-1.3s3,.7,3,2.6v5.3h-1.2ZM212.6,1206.2c-.5-.6-1.3-1-2.1-1s-1.9.7-1.9,1.7.8,1.7,1.9,1.7,1.7-.3,2.1-1v-1.5Z"/>
    <path class="st38" d="M216.3,1209.3v-10.7h1.2v10.7h-1.2Z"/>
    <path class="st38" d="M220.1,1209.3v-10.7h1.2v10.7h-1.2Z"/>
    <path class="st38" d="M223.6,1211.3c.2,0,.5.1.7.1.5,0,.9-.2,1.2-.8l.5-1.2-3.2-7.8h1.3l2.6,6.3,2.6-6.3h1.3l-3.9,9.3c-.5,1.1-1.2,1.6-2.3,1.6-.3,0-.7,0-.9-.1l.2-1.1Z"/>
    <path class="st38" d="M236.1,1207.7v-5.1h-1.3v-1.1h1.3v-2.1h1.2v2.1h1.6v1.1h-1.6v4.8c0,.6.3,1,.8,1s.7-.1.8-.3l.4.9c-.3.3-.7.5-1.4.5-1.1,0-1.7-.7-1.7-1.8Z"/>
    <path class="st38" d="M244.1,1201.4c2.3,0,3.7,1.8,3.7,4.1v.3h-6.3c0,1.5,1.1,2.7,2.8,2.7s1.8-.4,2.4-1l.6.8c-.8.8-1.8,1.2-3.1,1.2-2.3,0-3.9-1.6-3.9-4.1s1.6-4,3.8-4ZM241.5,1205h5.1c0-1.2-.8-2.6-2.5-2.6s-2.5,1.4-2.5,2.6Z"/>
    <path class="st38" d="M249.8,1207.4c.5.6,1.5,1.1,2.5,1.1s1.8-.5,1.8-1.3-.9-1.1-2-1.4c-1.3-.3-2.8-.7-2.8-2.3s1-2.2,2.9-2.2,2.2.5,2.9,1.1l-.6.8c-.5-.6-1.3-1-2.3-1s-1.7.5-1.7,1.2.9,1,1.9,1.2c1.3.3,2.9.7,2.9,2.4s-1,2.3-3,2.3-2.3-.4-3.1-1.2l.6-.9Z"/>
    <path class="st38" d="M257.7,1207.7v-5.1h-1.3v-1.1h1.3v-2.1h1.2v2.1h1.6v1.1h-1.6v4.8c0,.6.3,1,.8,1s.7-.1.8-.3l.4.9c-.3.3-.7.5-1.4.5-1.1,0-1.7-.7-1.7-1.8Z"/>
    <path class="st38" d="M267.8,1202.7v6.7h-1.2v-6.7h-1.3v-1.1h1.3v-.6c0-1.6.9-2.5,2.2-2.5s.9,0,1.2.3l-.3.9c-.2-.1-.4-.2-.7-.2-.8,0-1.2.5-1.2,1.5v.6h1.6v1.1h-1.6Z"/>
    <path class="st38" d="M270.5,1205.5c0-2.2,1.5-4,3.8-4s3.8,1.8,3.8,4-1.5,4.1-3.8,4.1-3.8-1.8-3.8-4.1ZM276.9,1205.5c0-1.6-.9-3-2.6-3s-2.6,1.4-2.6,3,.9,3,2.6,3,2.6-1.4,2.6-3Z"/>
    <path class="st38" d="M280.3,1209.3v-7.7h1.2v1.2c.6-.8,1.5-1.4,2.6-1.4v1.2c-.1,0-.3,0-.5,0-.7,0-1.7.6-2.1,1.2v5.5h-1.2Z"/>
    <path class="st38" d="M31.2,1220.6c1.4,0,2.2.6,2.8,1.3l-.8.7c-.5-.7-1.2-1-2-1-1.6,0-2.7,1.3-2.7,3s1,3,2.7,3,1.5-.3,2-1l.8.7c-.6.8-1.4,1.3-2.8,1.3-2.3,0-3.9-1.8-3.9-4.1s1.6-4,3.9-4Z"/>
    <path class="st38" d="M35.5,1224.7c0-2.2,1.5-4,3.8-4s3.8,1.8,3.8,4-1.5,4.1-3.8,4.1-3.8-1.8-3.8-4.1ZM41.9,1224.7c0-1.6-.9-3-2.6-3s-2.6,1.4-2.6,3,.9,3,2.6,3,2.6-1.4,2.6-3Z"/>
    <path class="st38" d="M54.6,1228.5v-5.2c0-1-.4-1.6-1.4-1.6s-1.6.6-2,1.2v5.7h-1.2v-5.2c0-1-.4-1.6-1.4-1.6s-1.6.6-2,1.2v5.7h-1.2v-7.7h1.2v1.1c.3-.5,1.4-1.3,2.5-1.3s1.9.6,2.1,1.4c.4-.7,1.5-1.4,2.6-1.4s2.2.8,2.2,2.3v5.6h-1.2Z"/>
    <path class="st38" d="M59.5,1231.5h-1.2v-10.7h1.2v1.2c.6-.8,1.5-1.3,2.6-1.3,2,0,3.4,1.5,3.4,4s-1.4,4.1-3.4,4.1-2-.5-2.6-1.4v4.1ZM61.8,1221.7c-.9,0-1.9.6-2.3,1.2v3.5c.4.7,1.4,1.2,2.3,1.2,1.6,0,2.5-1.3,2.5-3s-.9-3-2.5-3Z"/>
    <path class="st38" d="M72.5,1228.5v-.9c-.6.7-1.5,1.1-2.6,1.1s-2.7-.9-2.7-2.6,1.4-2.5,2.7-2.5,1.9.3,2.6,1.1v-1.4c0-1-.8-1.6-2-1.6s-1.7.3-2.4,1.1l-.6-.8c.8-.9,1.8-1.3,3.1-1.3s3,.7,3,2.6v5.3h-1.2ZM72.5,1225.4c-.5-.6-1.3-1-2.1-1s-1.9.7-1.9,1.7.8,1.7,1.9,1.7,1.7-.3,2.1-1v-1.5Z"/>
    <path class="st38" d="M76.3,1228.5v-7.7h1.2v1.2c.6-.8,1.5-1.4,2.6-1.4v1.2c-.1,0-.3,0-.5,0-.7,0-1.7.6-2.1,1.2v5.5h-1.2Z"/>
    <path class="st38" d="M86.6,1228.5v-.9c-.6.7-1.5,1.1-2.6,1.1s-2.7-.9-2.7-2.6,1.4-2.5,2.7-2.5,1.9.3,2.6,1.1v-1.4c0-1-.8-1.6-2-1.6s-1.7.3-2.4,1.1l-.6-.8c.8-.9,1.8-1.3,3.1-1.3s3,.7,3,2.6v5.3h-1.2ZM86.6,1225.4c-.5-.6-1.3-1-2.1-1s-1.9.7-1.9,1.7.8,1.7,1.9,1.7,1.7-.3,2.1-1v-1.5Z"/>
    <path class="st38" d="M90.3,1228.5v-10.7h1.2v4.1c.6-.8,1.6-1.4,2.6-1.4,2,0,3.4,1.6,3.4,4.1s-1.4,4-3.4,4-2-.6-2.6-1.3v1.2h-1.2ZM91.5,1226.4c.4.7,1.4,1.2,2.3,1.2,1.6,0,2.5-1.3,2.5-3s-.9-3-2.5-3-1.9.6-2.3,1.2v3.5Z"/>
    <path class="st38" d="M99.7,1228.5v-10.7h1.2v10.7h-1.2Z"/>
    <path class="st38" d="M106.8,1220.6c2.3,0,3.7,1.8,3.7,4.1v.3h-6.3c0,1.5,1.1,2.7,2.8,2.7s1.8-.4,2.4-1l.6.8c-.8.8-1.8,1.2-3.1,1.2-2.3,0-3.9-1.6-3.9-4.1s1.6-4,3.8-4ZM104.3,1224.2h5.1c0-1.2-.8-2.6-2.5-2.6s-2.5,1.4-2.5,2.6Z"/>
    <path class="st38" d="M119.9,1220.6c2.3,0,3.7,1.8,3.7,4.1v.3h-6.3c0,1.5,1.1,2.7,2.8,2.7s1.8-.4,2.4-1l.6.8c-.8.8-1.8,1.2-3.1,1.2-2.3,0-3.9-1.6-3.9-4.1s1.6-4,3.8-4ZM117.4,1224.2h5.1c0-1.2-.8-2.6-2.5-2.6s-2.5,1.4-2.5,2.6Z"/>
    <path class="st38" d="M127.3,1228.5h-1.2v-6.7h-1.3v-1.1h1.3v-.6c0-1.6.9-2.5,2.2-2.5s.9,0,1.2.3l-.3.9c-.2-.1-.4-.2-.7-.2-.8,0-1.2.5-1.2,1.5v.6h1.6v1.1h-1.6v6.7ZM133.4,1221.9h-1.6v6.7h-1.2v-6.7h-1.3v-1.1h1.3v-.6c0-1.6.9-2.5,2.2-2.5s.9,0,1.2.3l-.3.9c-.2-.1-.4-.2-.7-.2-.8,0-1.2.5-1.2,1.5v.6h1.6v1.1ZM134.6,1218.7c0-.4.4-.8.8-.8s.8.4.8.8-.4.8-.8.8-.8-.4-.8-.8ZM134.8,1228.5v-7.7h1.2v7.7h-1.2Z"/>
    <path class="st38" d="M142,1220.6c1.4,0,2.2.6,2.8,1.3l-.8.7c-.5-.7-1.2-1-2-1-1.6,0-2.7,1.3-2.7,3s1,3,2.7,3,1.5-.3,2-1l.8.7c-.6.8-1.4,1.3-2.8,1.3-2.3,0-3.9-1.8-3.9-4.1s1.6-4,3.9-4Z"/>
    <path class="st38" d="M151.5,1228.5v-.9c-.6.7-1.5,1.1-2.6,1.1s-2.7-.9-2.7-2.6,1.4-2.5,2.7-2.5,1.9.3,2.6,1.1v-1.4c0-1-.8-1.6-2-1.6s-1.7.3-2.4,1.1l-.6-.8c.8-.9,1.8-1.3,3.1-1.3s3,.7,3,2.6v5.3h-1.2ZM151.5,1225.4c-.5-.6-1.3-1-2.1-1s-1.9.7-1.9,1.7.8,1.7,1.9,1.7,1.7-.3,2.1-1v-1.5Z"/>
    <path class="st38" d="M158.7,1220.6c1.4,0,2.2.6,2.8,1.3l-.8.7c-.5-.7-1.2-1-2-1-1.6,0-2.7,1.3-2.7,3s1,3,2.7,3,1.5-.3,2-1l.8.7c-.6.8-1.4,1.3-2.8,1.3-2.3,0-3.9-1.8-3.9-4.1s1.6-4,3.9-4Z"/>
    <path class="st38" d="M163.1,1230.5c.2,0,.5.1.7.1.5,0,.9-.2,1.2-.8l.5-1.2-3.2-7.8h1.3l2.6,6.3,2.6-6.3h1.3l-3.9,9.3c-.5,1.1-1.2,1.6-2.3,1.6-.3,0-.7,0-.9-.1l.2-1.1Z"/>
    <path class="st38" d="M175.6,1226.9v-5.1h-1.3v-1.1h1.3v-2.1h1.2v2.1h1.6v1.1h-1.6v4.8c0,.6.3,1,.8,1s.7-.1.8-.3l.4.9c-.3.3-.7.5-1.4.5-1.1,0-1.7-.7-1.7-1.8Z"/>
    <path class="st38" d="M179.7,1224.7c0-2.2,1.5-4,3.8-4s3.8,1.8,3.8,4-1.5,4.1-3.8,4.1-3.8-1.8-3.8-4.1ZM186.1,1224.7c0-1.6-.9-3-2.6-3s-2.6,1.4-2.6,3,.9,3,2.6,3,2.6-1.4,2.6-3Z"/>
    <path class="st38" d="M193.5,1228.5v-10.7h1.3v10.7h-1.3Z"/>
    <path class="st38" d="M200.7,1228.5l-4.3-10.7h1.5l3.6,9.2,3.6-9.2h1.5l-4.3,10.7h-1.6Z"/>
    <path class="st38" d="M218.6,1228.5l-4-4.8-1.1,1.2v3.6h-1.3v-10.7h1.3v5.5l4.7-5.5h1.7l-4.5,5.1,4.8,5.6h-1.6Z"/>
    <path class="st38" d="M221.9,1228.5v-10.7h7v1.2h-5.7v3.4h5.6v1.2h-5.6v3.7h5.7v1.2h-7Z"/>
    <path class="st38" d="M234.3,1228.5v-4.5l-4.2-6.2h1.6l3.3,5,3.3-5h1.6l-4.2,6.2v4.5h-1.3Z"/>
    <path class="st38" d="M244,1228.5v-9.5h-3.4v-1.2h8.1v1.2h-3.4v9.5h-1.3Z"/>
    <path class="st38" d="M256.9,1228.5l-2.7-4.2h-2.1v4.2h-1.3v-10.7h4.3c2,0,3.3,1.2,3.3,3.2s-1.3,3-2.8,3.1l2.9,4.4h-1.6ZM254.8,1219h-2.8v4.1h2.8c1.3,0,2.1-.8,2.1-2s-.9-2-2.1-2Z"/>
    <path class="st38" d="M260.6,1217.9h1.3v6.5c0,2,1.1,3.2,3,3.2s3-1.2,3-3.2v-6.5h1.3v6.5c0,2.7-1.5,4.4-4.4,4.4s-4.4-1.7-4.4-4.3v-6.5Z"/>
    <path class="st38" d="M271.9,1228.5v-10.7h3.7c3.3,0,5.5,2.3,5.5,5.3s-2.2,5.3-5.5,5.3h-3.7ZM273.3,1227.3h2.3c2.6,0,4.1-1.9,4.1-4.1s-1.5-4.2-4.1-4.2h-2.3v8.3Z"/>
    <path class="st38" d="M290.4,1228.5l-.9-2.4h-5.4l-.9,2.4h-1.5l4.3-10.7h1.6l4.3,10.7h-1.5ZM286.7,1219l-2.3,5.9h4.6l-2.3-5.9Z"/>
  </g>
  <text class="st32" transform="translate(9.1 640.2)"><tspan class="st33"><tspan x="0" y="0">Secondary Endpoints: </tspan></tspan><tspan class="st38"><tspan x="0" y="28.8">Overall Response Rate </tspan></tspan><tspan class="st38"><tspan x="0" y="57.6">and Progression-Free </tspan></tspan><tspan class="st38"><tspan x="0" y="86.4">Survivial</tspan></tspan></text>
  <g>
    <rect class="st33" x="12.6" y="780.6" width="160.3" height="44.6"/>
    <rect class="st19" x="11.8" y="871.9" width="155.5" height="44.6"/>
    <line class="st2" x1="77.7" y1="931" x2="77.7" y2="927"/>
    <line class="st2" x1="182.6" y1="931" x2="182.6" y2="927"/>
    <line class="st2" x1="282.7" y1="931" x2="282.7" y2="927"/>
    <text class="st25" transform="translate(274.7 946.1) scale(1 1)"><tspan x="0" y="0">50</tspan></text>
    <text class="st25" transform="translate(175.5 946.1) scale(1 1)"><tspan x="0" y="0">45</tspan></text>
    <text class="st25" transform="translate(69.8 946.1) scale(1 1)"><tspan x="0" y="0">40</tspan></text>
    <text class="st29" transform="translate(186.9 803.4) scale(1 1)"><tspan x="0" y="0">44.5%</tspan></text>
    <text class="st29" transform="translate(293.8 801.4) scale(1 1)"><tspan x="0" y="0"> </tspan></text>
    <text class="st23" transform="translate(186.9 820.2) scale(1 1)"><tspan x="0" y="0">(xx%/xx%/xx%/xx%)</tspan></text>
    <text class="st28" transform="translate(20.5 770.7) scale(1 1)"><tspan class="st20" x="0" y="0">KEYTRU</tspan><tspan class="st18" x="68.7" y="0">D</tspan><tspan class="st20" x="81" y="0">A</tspan><tspan class="st34" x="93.3" y="0">QSUB </tspan><tspan class="st37" x="147.5" y="0">+ Chemo </tspan><tspan class="st35" x="224.3" y="0">(n=xxx)</tspan><tspan class="st37" x="265.7" y="0"> </tspan><tspan class="st34" x="270.3" y="0"> </tspan></text>
    <text class="st17" transform="translate(182.3 894.7) scale(1 1)"><tspan x="0" y="0">44</tspan><tspan class="st56" x="35.8" y="0">.</tspan><tspan x="40.5" y="0">1%</tspan></text>
    <text class="st17" transform="translate(277.7 892.7) scale(1 1)"><tspan x="0" y="0"> </tspan></text>
    <text class="st16" transform="translate(182.3 911.5) scale(1 1)"><tspan x="0" y="0">(xx%/xx%/xx%/xx%)</tspan></text>
    <text class="st31" transform="translate(20.5 861.7) scale(1 1)"><tspan class="st52" x="0" y="0" xml:space="preserve"> IV KEYTRU</tspan><tspan class="st53" x="95.2" y="0">D</tspan><tspan class="st52" x="107.5" y="0">A+ Chemo </tspan><tspan class="st36" x="196.5" y="0">(n=xxx)</tspan><tspan class="st52" x="238" y="0" xml:space="preserve">  </tspan></text>
    <polyline class="st2" points="12.2 745.2 12.2 926.3 306.3 926.3"/>
    <text class="st21" transform="translate(88.7 967.6)"><tspan x="0" y="0">Overall response rate, %</tspan></text>
  </g>
  <line class="st3" x1="298" y1="994.1" x2="11" y2="994.1"/>
  <text class="st30" transform="translate(19.8 1030.2)"><tspan x="0" y="0">No difference in progression-free </tspan><tspan x="20.1" y="21.6">survival was observed when </tspan><tspan x="23.3" y="43.2">compared to IV KEYTRU</tspan><tspan class="st57" x="221.4" y="43.2">D</tspan><tspan x="233.7" y="43.2" xml:space="preserve">A   </tspan></text>
</svg>