<svg width="281" height="61" viewBox="0 0 281 61" fill="none" xmlns="http://www.w3.org/2000/svg">
<g clip-path="url(#clip0_2105_3622)">
<path d="M3.40587 51.7462C3.38521 50.7008 3.15444 50.0694 2.12118 50.0694C1.29801 50.0694 0.781376 50.3868 0.781376 51.3839C0.781376 52.6398 1.34967 52.6743 2.21417 53.3678C3.151 54.1199 4.11194 54.3408 4.11194 55.9831C4.11194 57.4977 3.4162 58.2361 2.09018 58.2361C0.605721 58.2361 -0.0590131 57.3459 0.00298281 55.6898H0.698715C0.698715 56.6283 0.760711 57.6012 2.12118 57.6012C3.00634 57.6012 3.43687 57.0733 3.43687 56.1004C3.43687 54.9515 2.75147 54.6237 1.65621 53.8715C0.182082 52.8641 0.116642 52.3569 0.106309 51.515C0.0959767 50.0487 0.929478 49.438 2.17284 49.438C3.75374 49.438 4.09127 50.5283 4.09127 51.7496H3.40587V51.7462Z" fill="#808184"/>
<path d="M8.42415 52.1465V58.0705H7.87652V57.415H7.85586C7.48732 57.9187 7.10846 58.1878 6.51605 58.1878C5.42079 58.1878 5.11426 57.2977 5.11426 56.3351V52.1465H5.74799V56.2178C5.74799 56.3834 5.717 57.6254 6.63316 57.6254C7.48732 57.6254 7.79386 56.7353 7.79386 56.3247V52.1499H8.42415V52.1465Z" fill="#808184"/>
<path d="M9.44727 58.0704C9.47826 57.8703 9.50926 57.684 9.50926 57.4839V49.6001H10.1396V52.8157L10.1602 52.8399C10.4874 52.2775 10.9076 52.0291 11.5104 52.0291C13.2393 52.0291 13.1016 54.0474 13.1016 55.1032C13.1016 56.4039 13.0051 58.1877 11.4587 58.1877C10.8387 58.1877 10.3841 57.9048 10.1223 57.3562H10.1017V58.0704H9.44727ZM11.2693 57.6219C12.4403 57.6219 12.4713 56.5075 12.4713 55.1239C12.4713 53.7404 12.4403 52.5914 11.2693 52.5914C10.2463 52.5914 10.1223 54.1268 10.1223 55.0204C10.1223 55.9589 10.1223 57.6253 11.2693 57.6253V57.6219Z" fill="#808184"/>
<path d="M16.2767 53.8475C16.3077 53.1092 16.0666 52.5916 15.3399 52.5916C14.9507 52.5916 14.6235 52.8366 14.4857 53.2713C14.3996 53.5405 14.3376 54.3513 14.3376 55.1379C14.3376 56.204 14.3376 57.6255 15.3192 57.6255C16.1527 57.6255 16.2561 57.039 16.2871 56.3248H16.9208C16.9725 57.9188 15.9633 58.1914 15.4673 58.1914C13.666 58.1914 13.666 56.6077 13.666 55.1414C13.666 54.5548 13.6867 53.6267 13.8244 53.1816C14.1 52.3363 14.6993 52.0327 15.426 52.0327C16.3422 52.0327 16.9656 52.6089 16.9105 53.851H16.2767V53.8475Z" fill="#808184"/>
<path d="M21.0921 52.1465V58.0705H20.5445V57.415H20.5238C20.1553 57.9187 19.7764 58.1878 19.184 58.1878C18.0888 58.1878 17.7822 57.2977 17.7822 56.3351V52.1465H18.416V56.2178C18.416 56.3834 18.385 57.6254 19.3011 57.6254C20.1553 57.6254 20.4618 56.7353 20.4618 56.3247V52.1499H21.0921V52.1465Z" fill="#808184"/>
<path d="M21.6807 52.709V52.1466H22.5348V50.9252L23.1686 50.6216V52.1466H24.2432V52.709H23.1686V56.5077C23.1686 57.2943 23.2409 57.4806 23.7472 57.4806C23.9573 57.4806 24.1054 57.4703 24.2432 57.4461V58.0568C24.0537 58.081 23.8436 58.0913 23.6439 58.0913C22.7897 58.0913 22.5383 57.6704 22.5383 56.9424V52.709H21.6841H21.6807Z" fill="#808184"/>
<path d="M27.5741 57.3426H27.5534C27.2159 57.905 26.6992 58.1879 26.0448 58.1879C25.0977 58.1879 24.5811 57.4738 24.5811 56.4387C24.5811 54.3616 26.4582 54.5721 27.5327 54.479V53.9856C27.5327 53.1161 27.302 52.5917 26.4582 52.5917C25.8795 52.5917 25.4146 52.9091 25.4146 53.6129H24.7395C24.7912 52.4744 25.5833 52.0293 26.5098 52.0293C27.0471 52.0293 28.163 52.088 28.163 53.5992V56.5801C28.163 57.0011 28.163 57.3771 28.225 58.0706H27.5706V57.3426H27.5741ZM27.5327 55.0413C26.6269 55.0758 25.2561 54.9585 25.2561 56.4007C25.2561 57.0701 25.5627 57.6221 26.2136 57.6221C26.9403 57.6221 27.5293 56.8941 27.5293 56.1213V55.0413H27.5327Z" fill="#808184"/>
<path d="M29.871 58.0706H29.2373V52.1466H29.871V52.8746H29.8917C30.1982 52.3812 30.6081 52.0293 31.1764 52.0293C32.4921 52.0293 32.6299 53.1196 32.6299 53.8959V58.0706H31.9961V53.9304C31.9961 53.2369 31.755 52.5917 31.0145 52.5917C30.4462 52.5917 29.8676 53.0264 29.8676 54.3513V58.0706H29.871Z" fill="#808184"/>
<path d="M34.1493 55.2552V55.7141C34.1493 56.5352 34.3491 57.6255 35.3513 57.6255C36.1401 57.6255 36.5327 57.0631 36.5224 56.2661H37.1871C37.1148 57.698 36.419 58.1913 35.3548 58.1913C34.4386 58.1913 33.5225 57.7808 33.5225 55.9866V54.5341C33.5225 52.8228 34.1665 52.0361 35.3548 52.0361C37.1871 52.0361 37.1871 53.5025 37.1871 55.2621H34.1528L34.1493 55.2552ZM36.5534 54.6894C36.5534 53.3748 36.3639 52.5916 35.3513 52.5916C34.3387 52.5916 34.1493 53.3783 34.1493 54.6894H36.5534Z" fill="#808184"/>
<path d="M37.9346 55.7452V54.4652C37.9346 52.9298 38.5235 52.0259 39.7669 52.0259C41.0103 52.0259 41.5992 52.9298 41.5992 54.4652V55.7452C41.5992 57.2806 41.0103 58.1845 39.7669 58.1845C38.5235 58.1845 37.9346 57.2806 37.9346 55.7452ZM38.5649 55.1C38.5649 56.6492 38.7233 57.6221 39.7669 57.6221C40.8105 57.6221 40.9689 56.6492 40.9689 55.1C40.9689 53.5509 40.8105 52.5917 39.7669 52.5917C38.7233 52.5917 38.5649 53.5647 38.5649 55.1Z" fill="#808184"/>
<path d="M45.8382 52.1465V58.0705H45.2906V57.415H45.2699C44.9014 57.9187 44.5225 58.1878 43.9301 58.1878C42.8349 58.1878 42.5283 57.2977 42.5283 56.3351V52.1465H43.1621V56.2178C43.1621 56.3834 43.1311 57.6254 44.0472 57.6254C44.9014 57.6254 45.2079 56.7353 45.2079 56.3247V52.1499H45.8382V52.1465Z" fill="#808184"/>
<path d="M48.315 58.1879C47.1681 58.1879 46.7135 57.5669 46.7238 56.311H47.3679C47.3679 57.1218 47.5366 57.6601 48.3495 57.6601C48.9591 57.6601 49.2553 57.2736 49.2553 56.6146C49.2553 55.0655 46.865 55.4657 46.865 53.506C46.865 52.4157 47.5401 52.0293 48.4666 52.0293C49.5205 52.0293 49.858 52.8401 49.858 53.7406H49.2381C49.2071 52.9885 49.028 52.5917 48.3116 52.5917C47.857 52.5917 47.4988 52.9195 47.4988 53.4473C47.4988 54.924 49.8925 54.5273 49.8925 56.5077C49.8925 57.6221 49.3139 58.1845 48.3219 58.1845L48.315 58.1879Z" fill="#808184"/>
<path d="M53.678 49.6001V58.0704H53.0029V49.6001H53.678Z" fill="#808184"/>
<path d="M55.5234 58.0706H54.8896V52.1466H55.5234V52.8746H55.5441C55.8506 52.3812 56.2604 52.0293 56.8287 52.0293C58.1444 52.0293 58.2822 53.1196 58.2822 53.8959V58.0706H57.6485V53.9304C57.6485 53.2369 57.4074 52.5917 56.6669 52.5917C56.0986 52.5917 55.5199 53.0264 55.5199 54.3513V58.0706H55.5234Z" fill="#808184"/>
<path d="M60.1906 52.1464V59.1607C60.1906 59.5954 60.0632 60.3579 59.1573 60.3579C58.9266 60.3579 58.7475 60.3338 58.6924 60.3096V59.7231C59.4708 59.7817 59.5569 59.5471 59.5569 58.7743V52.1464H60.1906ZM59.4846 50.4903V49.6001H60.2629V50.4903H59.4846Z" fill="#808184"/>
<path d="M61.8788 55.2552V55.7141C61.8788 56.5352 62.0786 57.6255 63.0808 57.6255C63.8696 57.6255 64.2622 57.0631 64.2519 56.2661H64.9166C64.8443 57.698 64.1485 58.1913 63.0843 58.1913C62.1681 58.1913 61.252 57.7808 61.252 55.9866V54.5341C61.252 52.8228 61.896 52.0361 63.0843 52.0361C64.9166 52.0361 64.9166 53.5025 64.9166 55.2621H61.8822L61.8788 55.2552ZM64.2794 54.6894C64.2794 53.3748 64.09 52.5916 63.0774 52.5916C62.0648 52.5916 61.8754 53.3783 61.8754 54.6894H64.2794Z" fill="#808184"/>
<path d="M68.1713 53.8475C68.2023 53.1092 67.9612 52.5916 67.2344 52.5916C66.8452 52.5916 66.518 52.8366 66.3803 53.2713C66.2942 53.5405 66.2322 54.3513 66.2322 55.1379C66.2322 56.204 66.2322 57.6255 67.2138 57.6255C68.0473 57.6255 68.1506 57.039 68.1816 56.3248H68.8153C68.867 57.9188 67.8578 58.1914 67.3619 58.1914C65.5605 58.1914 65.5605 56.6077 65.5605 55.1414C65.5605 54.5548 65.5812 53.6267 65.719 53.1816C65.9945 52.3363 66.5938 52.0327 67.3205 52.0327C68.2367 52.0327 68.8601 52.6089 68.805 53.851H68.1713V53.8475Z" fill="#808184"/>
<path d="M69.1592 52.709V52.1466H70.0133V50.9252L70.6471 50.6216V52.1466H71.7217V52.709H70.6471V56.5077C70.6471 57.2943 70.7194 57.4806 71.2257 57.4806C71.4358 57.4806 71.5839 57.4703 71.7217 57.4461V58.0568C71.5322 58.081 71.3221 58.0913 71.1224 58.0913C70.2682 58.0913 70.0168 57.6704 70.0168 56.9424V52.709H69.1626H69.1592Z" fill="#808184"/>
<path d="M72.4385 50.4903V49.6001H73.2169V50.4903H72.4385ZM72.5108 58.0704V52.1464H73.1411V58.0704H72.5108Z" fill="#808184"/>
<path d="M74.2393 55.7452V54.4652C74.2393 52.9298 74.8282 52.0259 76.0716 52.0259C77.3149 52.0259 77.9039 52.9298 77.9039 54.4652V55.7452C77.9039 57.2806 77.3149 58.1845 76.0716 58.1845C74.8282 58.1845 74.2393 57.2806 74.2393 55.7452ZM74.873 55.1C74.873 56.6492 75.0314 57.6221 76.075 57.6221C77.1186 57.6221 77.2771 56.6492 77.2771 55.1C77.2771 53.5509 77.1186 52.5917 76.075 52.5917C75.0314 52.5917 74.873 53.5647 74.873 55.1Z" fill="#808184"/>
<path d="M79.4267 58.0706H78.793V52.1466H79.4267V52.8746H79.4474C79.7539 52.3812 80.1638 52.0293 80.7321 52.0293C82.0478 52.0293 82.1855 53.1196 82.1855 53.8959V58.0706H81.5518V53.9304C81.5518 53.2369 81.3107 52.5917 80.5702 52.5917C80.0019 52.5917 79.4233 53.0264 79.4233 54.3513V58.0706H79.4267Z" fill="#808184"/>
<path d="M87.7207 49.2725H88.2683V61.0032H87.7207V49.2725Z" fill="#808184"/>
<path d="M93.9375 51.1736C94.4231 50.7975 94.895 50.4007 95.267 49.8936H95.8559V58.0706H95.2222V50.832C94.8227 51.2529 94.399 51.6428 93.9375 51.9809V51.1701V51.1736Z" fill="#808184"/>
<path d="M100.092 51.7116C100.05 50.9007 99.7541 50.397 99.0171 50.397C97.753 50.397 97.7324 51.8634 97.7324 53.1054V53.8196L97.753 53.8093C98.0286 53.2124 98.5555 52.9191 99.1962 52.9191C100.956 52.9191 100.839 54.9824 100.839 55.2308C100.839 56.8248 100.67 58.198 99.0584 58.198C97.2674 58.198 97.0986 57.0352 97.0986 55.4067V52.7328C97.0986 50.7489 97.4362 49.7656 99.0584 49.7656C100.195 49.7656 100.743 50.435 100.767 51.7116H100.092ZM99.0274 53.554C98.2593 53.554 97.7324 54.1164 97.7324 55.5137C97.7324 55.5827 97.5843 57.5666 98.9757 57.5666C100.112 57.5666 100.167 56.4177 100.167 55.4447C100.167 54.1785 99.8953 53.5574 99.0308 53.5574L99.0274 53.554Z" fill="#808184"/>
<path d="M105.613 55.5105C105.613 56.8699 105.306 58.1982 103.725 58.1982C102.472 58.1982 101.827 57.5427 101.858 56.1109H102.534C102.513 57.039 102.84 57.5669 103.715 57.5669C104.821 57.5669 104.938 56.4869 104.938 55.514C104.938 54.541 104.865 53.4714 103.694 53.4714C103.219 53.4714 102.651 53.7647 102.547 54.3271H101.938V49.8936H105.32V50.5284H102.568V53.4473C102.988 53.0126 103.284 52.8366 103.863 52.8366C105.664 52.8366 105.613 54.5272 105.613 55.5105Z" fill="#808184"/>
<path d="M109.326 58.0706H108.695V52.1363H109.264V52.8746H109.284C109.536 52.395 109.959 52.0293 110.548 52.0293C111.096 52.0293 111.582 52.3709 111.761 52.9574C112.022 52.3709 112.477 52.0293 113.066 52.0293C113.951 52.0293 114.416 52.709 114.447 53.6613V58.0706H113.813V53.8372C113.803 53.2507 113.614 52.5951 112.99 52.5951C112.188 52.5951 111.885 53.4853 111.885 54.2616V58.0741H111.251V53.8407C111.241 53.2541 111.051 52.5986 110.428 52.5986C109.625 52.5986 109.322 53.4887 109.322 54.265V58.0775L109.326 58.0706Z" fill="#808184"/>
<path d="M118.305 52.1328H118.925C118.905 52.6952 118.894 52.9885 118.894 53.2955V58.2811C118.894 59.5818 118.536 60.3581 117.017 60.3581C115.688 60.3581 115.426 59.3127 115.467 58.7158H116.101C116.06 59.3955 116.511 59.7958 117.103 59.7958C118.336 59.7958 118.264 59.0574 118.264 57.2874H118.243C117.968 57.7912 117.465 58.0016 116.959 58.0016C115.429 58.0016 115.326 56.5353 115.326 55.2208C115.326 53.9062 115.337 53.8372 115.485 53.2024C115.536 52.9574 115.905 52.0293 116.979 52.0293C117.517 52.0293 118.054 52.3329 118.285 52.8608L118.305 52.885V52.1328ZM115.956 54.9723C115.956 56.2041 115.956 57.4358 117.103 57.4358C117.63 57.4358 117.968 57.0494 118.061 56.7665C118.219 56.3076 118.261 56.0385 118.261 54.303C118.261 53.0609 117.661 52.5917 117.069 52.5917C115.974 52.5917 115.953 54.0925 115.953 54.9723H115.956Z" fill="#808184"/>
<path d="M122.111 55.4069V54.7963H123.964V52.1465H124.512V54.7963H126.365V55.4069H124.512V58.0705H123.964V55.4069H122.111Z" fill="#808184"/>
<path d="M133.07 58.0708H129.33V57.4152C130.963 54.5998 132.385 52.7229 132.385 51.6327C132.385 50.5424 131.765 50.4009 131.183 50.4009C130.381 50.4009 129.981 51.0461 129.981 51.8914H129.347C129.347 50.2595 130.329 49.7695 131.18 49.7695C132.03 49.7695 133.057 50.0731 133.057 51.4705C133.057 52.6677 132.519 53.3371 130.064 57.4394H133.067V58.0742L133.07 58.0708Z" fill="#808184"/>
<path d="M133.956 57.1768H134.724L134.09 59.2986H133.532L133.952 57.1768H133.956Z" fill="#808184"/>
<path d="M138.888 53.0951V54.8651C138.888 56.4004 138.888 58.198 137.011 58.198C135.134 58.198 135.134 56.4039 135.134 54.8651V53.0951C135.134 51.5597 135.134 49.7656 137.011 49.7656C138.888 49.7656 138.888 51.5597 138.888 53.0951ZM135.812 55.5827C135.812 57.4251 136.539 57.5666 137.014 57.5666C137.49 57.5666 138.216 57.4251 138.216 55.5827V52.3809C138.216 50.5385 137.49 50.397 137.014 50.397C136.539 50.397 135.812 50.5385 135.812 52.3809V55.5827Z" fill="#808184"/>
<path d="M143.569 53.0951V54.8651C143.569 56.4004 143.569 58.198 141.692 58.198C139.814 58.198 139.814 56.4039 139.814 54.8651V53.0951C139.814 51.5597 139.814 49.7656 141.692 49.7656C143.569 49.7656 143.569 51.5597 143.569 53.0951ZM140.49 55.5827C140.49 57.4251 141.216 57.5666 141.692 57.5666C142.167 57.5666 142.894 57.4251 142.894 55.5827V52.3809C142.894 50.5385 142.167 50.397 141.692 50.397C141.216 50.397 140.49 50.5385 140.49 52.3809V55.5827Z" fill="#808184"/>
<path d="M148.245 53.0951V54.8651C148.245 56.4004 148.245 58.198 146.368 58.198C144.491 58.198 144.491 56.4039 144.491 54.8651V53.0951C144.491 51.5597 144.491 49.7656 146.368 49.7656C148.245 49.7656 148.245 51.5597 148.245 53.0951ZM145.17 55.5827C145.17 57.4251 145.896 57.5666 146.372 57.5666C146.847 57.5666 147.574 57.4251 147.574 55.5827V52.3809C147.574 50.5385 146.847 50.397 146.372 50.397C145.896 50.397 145.17 50.5385 145.17 52.3809V55.5827Z" fill="#808184"/>
<path d="M154.62 52.1465V58.0705H154.073V57.415H154.052C153.684 57.9187 153.305 58.1878 152.712 58.1878C151.617 58.1878 151.311 57.2977 151.311 56.3351V52.1465H151.944V56.2178C151.944 56.3834 151.913 57.6254 152.829 57.6254C153.684 57.6254 153.99 56.7353 153.99 56.3247V52.1499H154.62V52.1465Z" fill="#808184"/>
<path d="M156.37 58.0706H155.736V52.1466H156.37V52.8746H156.391C156.697 52.3812 157.107 52.0293 157.675 52.0293C158.991 52.0293 159.129 53.1196 159.129 53.8959V58.0706H158.495V53.9304C158.495 53.2369 158.254 52.5917 157.514 52.5917C156.945 52.5917 156.367 53.0264 156.367 54.3513V58.0706H156.37Z" fill="#808184"/>
<path d="M160.345 50.4903V49.6001H161.123V50.4903H160.345ZM160.417 58.0704V52.1464H161.047V58.0704H160.417Z" fill="#808184"/>
<path d="M161.864 52.709V52.1466H162.718V50.9252L163.352 50.6216V52.1466H164.427V52.709H163.352V56.5077C163.352 57.2943 163.424 57.4806 163.931 57.4806C164.141 57.4806 164.289 57.4703 164.427 57.4461V58.0568C164.237 58.081 164.027 58.0913 163.827 58.0913C162.973 58.0913 162.722 57.6704 162.722 56.9424V52.709H161.868H161.864Z" fill="#808184"/>
<path d="M166.679 58.1879C165.532 58.1879 165.078 57.5669 165.088 56.311H165.732C165.732 57.1218 165.901 57.6601 166.714 57.6601C167.323 57.6601 167.62 57.2736 167.62 56.6146C167.62 55.0655 165.229 55.4657 165.229 53.506C165.229 52.4157 165.904 52.0293 166.831 52.0293C167.885 52.0293 168.222 52.8401 168.222 53.7406H167.602C167.571 52.9885 167.392 52.5917 166.676 52.5917C166.221 52.5917 165.863 52.9195 165.863 53.4473C165.863 54.924 168.257 54.5273 168.257 56.5077C168.257 57.6221 167.678 58.1845 166.686 58.1845L166.679 58.1879Z" fill="#808184"/>
<path d="M168.694 59.3608L171.687 49.6001H172.256L169.252 59.3608H168.694Z" fill="#808184"/>
<path d="M173.498 58.0706H172.868V52.1363H173.436V52.8746H173.457C173.709 52.395 174.132 52.0293 174.721 52.0293C175.269 52.0293 175.754 52.3709 175.934 52.9574C176.195 52.3709 176.65 52.0293 177.239 52.0293C178.124 52.0293 178.589 52.709 178.62 53.6613V58.0706H177.986V53.8372C177.976 53.2507 177.787 52.5951 177.163 52.5951C176.361 52.5951 176.058 53.4853 176.058 54.2616V58.0741H175.424V53.8407C175.413 53.2541 175.224 52.5986 174.601 52.5986C173.798 52.5986 173.495 53.4887 173.495 54.265V58.0775L173.498 58.0706Z" fill="#808184"/>
<path d="M179.757 58.0704V49.6001H180.432V57.4356H182.95V58.0704H179.757Z" fill="#808184"/>
<path d="M164.606 7.15918C164.606 7.15918 164.62 7.15918 164.627 7.16263C164.62 7.16263 164.613 7.16263 164.606 7.15918Z" fill="#7C02BB"/>
<path d="M17.2629 3.67432H12.1034L4.08531 12.1653V3.67432H0.00390625V22.7817H4.08531V17.2337L6.43426 14.8185L12.4651 22.7817H17.4489L9.2413 11.9859L17.2629 3.67432Z" fill="#6CC04A"/>
<path d="M22.9222 15.0256H32.0425V11.2752H22.9222V7.42471H33.2101V3.67432H18.8408V22.7817H33.341V19.0313H22.9222V15.0256Z" fill="#6CC04A"/>
<path d="M52.6621 7.54925H58.4312V22.7992H62.5401V7.54925H68.3058V3.69189H52.6621V7.54925Z" fill="#6CC04A"/>
<path d="M86.5429 9.94025V9.8885C86.5429 8.21169 85.978 6.7488 84.9034 5.64127C83.6015 4.36814 81.6796 3.69189 79.3444 3.69189H70.7959V22.7992H74.8773V16.4474H78.2044L82.6716 22.7992H87.5279L82.4718 15.6952C85.1032 14.7361 86.5394 12.7142 86.5394 9.9437L86.5429 9.94025ZM74.8807 7.49749H79.0861C80.326 7.49749 82.4098 7.83217 82.4098 10.0714V10.1231C82.4098 11.7275 81.1458 12.7246 79.1102 12.7246H74.8773V7.49749H74.8807Z" fill="#6CC04A"/>
<path d="M101.663 14.6257C101.663 17.6101 100.196 19.2559 97.5335 19.2559C94.8711 19.2559 93.3798 17.5653 93.3798 14.4946V3.69189H89.2949V14.6257C89.2949 19.9218 92.3568 23.0856 97.4818 23.0856C102.607 23.0856 105.745 19.9459 105.745 14.4704V3.69189H101.663V14.6257Z" fill="#6CC04A"/>
<path d="M126.579 13.1938C126.579 7.68726 122.329 3.69189 116.471 3.69189H109.248V22.7992H116.471C122.329 22.7992 126.579 18.7832 126.579 13.2456V13.1938ZM113.329 7.49749H116.471C119.925 7.49749 122.34 9.8609 122.34 13.249V13.3008C122.34 16.7096 119.98 18.9971 116.471 18.9971H113.329V7.49749Z" fill="#6CC04A"/>
<path d="M138.454 3.50879H134.914L126.523 22.7438H130.77L132.64 18.3448H140.652L142.498 22.7438H146.848L138.458 3.50879H138.454ZM139.098 14.622H134.183L136.629 8.90149L139.095 14.622H139.098Z" fill="#6CC04A"/>
<path d="M39.9844 6.78662V12.8625L38.6963 11.4444V8.20466L39.9844 6.78662Z" fill="#7EA8AD"/>
<path d="M39.9946 10.7232L33.7227 3.81934H35.5446L39.9946 8.71866V10.7232Z" fill="#0D2240"/>
<path d="M39.9844 17.5581V22.3781L38.6963 20.9635V18.9761L39.9844 17.5581Z" fill="#7EA8AD"/>
<path d="M40.2803 14.4014V17.5583L38.9922 16.1437V15.8194L40.2803 14.4014Z" fill="#7EA8AD"/>
<path d="M45.6084 10.4991L51.8803 3.59521H50.0583L45.6084 8.49454V10.4991Z" fill="#6CC04A"/>
<path d="M42.7085 11.7825V7.12817L39.7223 3.8401L36.2368 0H32.0107L39.7223 8.49101V22.9682L42.7085 25.3592V11.7825Z" fill="#6CC04A"/>
<path d="M42.6943 11.7825V7.12817L45.6839 3.8401L49.166 0H53.3955L45.6839 8.49101V22.9682L42.6943 25.3592V11.7825Z" fill="#0D2240"/>
<path d="M173.957 20.3908C171.443 16.4092 169.311 13.6318 162.164 15.2327C162.164 15.2327 166.156 15.6433 168.829 18.4517C167.83 19.0245 166.656 19.3557 165.347 19.3557C161.231 19.3557 158.31 16.0297 158.31 12.0412V11.9722C158.31 7.98376 161.162 4.72329 165.281 4.72329C169.401 4.72329 172.318 8.05276 172.318 12.0447V12.1102C172.318 13.0728 172.149 13.9906 171.839 14.8325C173.207 15.8468 174.219 17.3339 175.301 19.0486C175.321 19.0797 175.342 19.1107 175.363 19.1383C176.826 17.1476 177.66 14.6875 177.66 12.0447V11.9757C177.66 5.35814 172.518 0.00683594 165.343 0.00683594C158.169 0.00683594 152.958 5.42369 152.958 12.0447V12.1102C152.958 18.7312 158.107 24.0825 165.278 24.0825C167.682 24.0825 169.859 23.4753 171.698 22.4161C173.699 24.8278 176.237 26.1112 181.628 24.9037C181.628 24.9037 176.468 24.3758 173.954 20.3942L173.957 20.3908Z" fill="#7C02BB"/>
<path d="M187.744 16.392V16.3437C187.744 12.5967 190.407 9.51221 194.223 9.51221C198.6 9.51221 200.605 12.9176 200.605 16.6404C200.605 16.9336 200.577 17.2752 200.557 17.6202H191.436C191.801 19.3108 192.976 20.1907 194.639 20.1907C195.886 20.1907 196.792 19.7973 197.818 18.8451L199.944 20.7289C198.721 22.247 196.961 23.1786 194.591 23.1786C190.655 23.1786 187.744 20.4115 187.744 16.3954V16.392ZM196.985 15.2879C196.765 13.6214 195.786 12.4967 194.223 12.4967C192.659 12.4967 191.681 13.5973 191.388 15.2879H196.985Z" fill="#7C02BB"/>
<path d="M207.514 13.597L209.983 9.75H213.872L209.446 16.1674L214.065 22.8781H210.08L207.441 18.7896L204.8 22.8781H200.911L205.509 16.2157L201.083 9.75H205.068L207.514 13.597Z" fill="#7C02BB"/>
<path d="M184.231 16.5747C184.231 17.2509 184.272 17.9686 184.272 18.6897C184.272 19.7627 184.42 20.3803 186.432 20.3803V23.1715H184.441C182.33 23.1715 180.766 22.4953 180.642 19.6626C180.601 18.9001 180.601 17.9272 180.601 16.7023V3.67773H184.231V16.5712V16.5747Z" fill="#7C02BB"/>
<path d="M1.0475 33.8917L1.08195 33.871C1.65713 32.8911 2.55607 32.4702 3.27591 32.4702C6.11739 32.4702 6.13462 35.2304 6.13462 36.5518V38.8117C6.13462 41.4339 5.32522 42.9727 3.00726 42.9727C2.34253 42.9727 1.6778 42.6139 1.11983 41.6513L1.08539 41.6306V46.592H0.00390625V32.6634H1.0475V33.8848V33.8917ZM1.08195 38.6151C1.08195 40.9164 2.01533 42.017 3.00382 42.017C4.78448 42.017 5.05313 40.3574 5.05313 37.7146C5.05313 35.0717 4.78448 33.4328 3.00382 33.4328C2.3012 33.4328 1.08195 34.3126 1.08195 36.814V38.6151Z" fill="#808184"/>
<path d="M8.70402 37.9767V38.7565C8.70402 40.1573 9.04499 42.017 10.7533 42.017C12.1035 42.017 12.7682 41.0578 12.7475 39.695H13.8807C13.7532 42.1377 12.5684 42.9761 10.7533 42.9761C9.18965 42.9761 7.62598 42.2757 7.62598 39.2154V36.7347C7.62598 33.8123 8.72124 32.4736 10.7533 32.4736C13.8807 32.4736 13.8807 34.975 13.8807 37.9767H8.70402ZM12.8061 37.0141C12.8061 34.7715 12.4823 33.4328 10.7568 33.4328C9.03122 33.4328 8.70746 34.7749 8.70746 37.0141H12.8061Z" fill="#808184"/>
<path d="M16.3808 42.7795H15.3027V32.6531H16.274V33.9124H16.3084C16.739 33.0913 17.4588 32.4702 18.4645 32.4702C19.3979 32.4702 20.228 33.0499 20.5311 34.0504C20.9788 33.0499 21.7538 32.4702 22.7595 32.4702C24.268 32.4702 25.0602 33.6295 25.1153 35.2511V42.776H24.0373V35.5513C24.0201 34.5507 23.6963 33.4294 22.6355 33.4294C21.2681 33.4294 20.748 34.9509 20.748 36.2724V42.776H19.67V35.5513C19.6528 34.5507 19.329 33.4294 18.2682 33.4294C16.9009 33.4294 16.3808 34.9509 16.3808 36.2724V42.776V42.7795Z" fill="#808184"/>
<path d="M26.5415 42.7796C26.5966 42.438 26.6483 42.1206 26.6483 41.779V28.3335H27.7263V33.8159L27.7608 33.8573C28.3187 32.8981 29.0386 32.4772 30.0615 32.4772C33.0098 32.4772 32.7756 35.9205 32.7756 37.7216C32.7756 39.9435 32.6137 42.9832 29.972 42.9832C28.9112 42.9832 28.1396 42.5036 27.6885 41.5617H27.654V42.783H26.5381L26.5415 42.7796ZM29.6517 42.0171C31.6459 42.0171 31.701 40.116 31.701 37.7561C31.701 35.3961 31.6459 33.4329 29.6517 33.4329C27.9089 33.4329 27.6919 36.0551 27.6919 37.5732C27.6919 39.1741 27.6919 42.0171 29.6517 42.0171Z" fill="#808184"/>
<path d="M35.331 34.0331H35.3654C35.8132 33.074 36.7672 32.4736 37.8659 32.4736V33.695C36.3367 33.5536 35.331 34.5748 35.331 36.2758V42.7795H34.2529V32.6737H35.331V34.0331Z" fill="#808184"/>
<path d="M38.4961 38.8151V36.6346C38.4961 34.0124 39.5018 32.4736 41.6234 32.4736C43.7451 32.4736 44.7508 34.0159 44.7508 36.6346V38.8151C44.7508 41.4373 43.7451 42.9761 41.6234 42.9761C39.5018 42.9761 38.4961 41.4339 38.4961 38.8151ZM39.5741 37.7145C39.5741 40.3574 39.8428 42.017 41.6234 42.017C43.4041 42.017 43.6728 40.3574 43.6728 37.7145C43.6728 35.0717 43.4041 33.4328 41.6234 33.4328C39.8428 33.4328 39.5741 35.0924 39.5741 37.7145Z" fill="#808184"/>
<path d="M46.1738 42.7796V28.3301H47.2519V42.7796H46.1738Z" fill="#808184"/>
<path d="M48.6875 29.8516V28.3301H50.017V29.8516H48.6875ZM48.8149 42.7796V32.6739H49.893V42.7796H48.8149Z" fill="#808184"/>
<path d="M51.3501 41.7962L55.125 33.633H51.5637V32.6738H56.2202V33.6744L52.5349 41.8204H56.3098V42.7795H51.3467V41.7997L51.3501 41.7962Z" fill="#808184"/>
<path d="M63.4668 32.6739V42.7796H62.5334V41.6582H62.499C61.8687 42.5174 61.2212 42.9797 60.2155 42.9797C58.3453 42.9797 57.8252 41.4581 57.8252 39.8193V32.6739H58.9032V39.6157C58.9032 39.8952 58.8481 42.0171 60.4118 42.0171C61.8687 42.0171 62.3888 40.4955 62.3888 39.7951V32.6704H63.4668V32.6739Z" fill="#808184"/>
<path d="M66.1259 42.7795H65.0479V32.6531H66.0191V33.9124H66.0536C66.4841 33.0913 67.2039 32.4702 68.2096 32.4702C69.143 32.4702 69.9731 33.0499 70.2762 34.0504C70.7239 33.0499 71.4989 32.4702 72.5046 32.4702C74.0131 32.4702 74.8053 33.6295 74.8604 35.2511V42.776H73.7824V35.5513C73.7652 34.5507 73.4414 33.4294 72.3806 33.4294C71.0132 33.4294 70.4932 34.9509 70.4932 36.2724V42.776H69.4151V35.5513C69.3979 34.5507 69.0741 33.4294 68.0133 33.4294C66.646 33.4294 66.1259 34.9509 66.1259 36.2724V42.776V42.7795Z" fill="#808184"/>
<path d="M81.4803 41.5374H81.4459C80.8707 42.4965 79.989 42.9796 78.8765 42.9796C77.2577 42.9796 76.376 41.7582 76.376 39.9986C76.376 36.4552 79.5757 36.8175 81.4114 36.6553V35.8135C81.4114 34.3333 81.0153 33.4328 79.5791 33.4328C78.5906 33.4328 77.7984 33.9745 77.7984 35.1752H76.6481C76.7376 33.2327 78.0878 32.4736 79.6686 32.4736C80.5848 32.4736 82.4929 32.5737 82.4929 35.1545V40.2366C82.4929 40.9577 82.4929 41.596 82.5997 42.7795H81.4838V41.5374H81.4803ZM81.408 37.6145C79.8615 37.6731 77.5229 37.473 77.5229 39.9365C77.5229 41.0785 78.043 42.017 79.1589 42.017C80.3988 42.017 81.408 40.7749 81.408 39.4569V37.6145Z" fill="#808184"/>
<path d="M84.0152 42.7796C84.0703 42.438 84.1219 42.1206 84.1219 41.779V28.3335H85.2V33.8159L85.2344 33.8573C85.7924 32.8981 86.5122 32.4772 87.5352 32.4772C90.4834 32.4772 90.2492 35.9205 90.2492 37.7216C90.2492 39.9435 90.0873 42.9832 87.4456 42.9832C86.3848 42.9832 85.6133 42.5036 85.1621 41.5617H85.1276V42.783H84.0117L84.0152 42.7796ZM87.1253 42.0171C89.1195 42.0171 89.1746 40.116 89.1746 37.7561C89.1746 35.3961 89.1195 33.4329 87.1253 33.4329C85.3825 33.4329 85.1655 36.0551 85.1655 37.5732C85.1655 39.1741 85.1655 42.0171 87.1253 42.0171Z" fill="#808184"/>
<path d="M94.334 38.2356V37.1937H97.4992V32.6704H98.4326V37.1937H101.598V38.2356H98.4326V42.7796H97.4992V38.2356H94.334Z" fill="#808184"/>
<path d="M106.974 42.7796C107.029 42.438 107.081 42.1206 107.081 41.779V28.3335H108.159V33.8159L108.193 33.8573C108.751 32.8981 109.471 32.4772 110.494 32.4772C113.442 32.4772 113.208 35.9205 113.208 37.7216C113.208 39.9435 113.046 42.9832 110.405 42.9832C109.344 42.9832 108.572 42.5036 108.121 41.5617H108.087V42.783H106.971L106.974 42.7796ZM110.084 42.0171C112.078 42.0171 112.134 40.116 112.134 37.7561C112.134 35.3961 112.078 33.4329 110.084 33.4329C108.342 33.4329 108.125 36.0551 108.125 37.5732C108.125 39.1741 108.125 42.0171 110.084 42.0171Z" fill="#808184"/>
<path d="M115.513 37.9767V38.7565C115.513 40.1573 115.854 42.017 117.562 42.017C118.912 42.017 119.577 41.0578 119.556 39.695H120.689C120.562 42.1377 119.377 42.9761 117.562 42.9761C115.998 42.9761 114.435 42.2757 114.435 39.2154V36.7347C114.435 33.8123 115.53 32.4736 117.562 32.4736C120.689 32.4736 120.689 34.975 120.689 37.9767H115.513ZM119.611 37.0141C119.611 34.7715 119.287 33.4328 117.562 33.4328C115.836 33.4328 115.513 34.7749 115.513 37.0141H119.611Z" fill="#808184"/>
<path d="M123.083 34.0331H123.117C123.565 33.074 124.519 32.4736 125.618 32.4736V33.695C124.089 33.5536 123.083 34.5748 123.083 36.2758V42.7795H122.005V32.6737H123.083V34.0331Z" fill="#808184"/>
<path d="M130.905 41.5374H130.871C130.295 42.4965 129.414 42.9796 128.301 42.9796C126.683 42.9796 125.801 41.7582 125.801 39.9986C125.801 36.4552 129 36.8175 130.836 36.6553V35.8135C130.836 34.3333 130.44 33.4328 129.004 33.4328C128.015 33.4328 127.223 33.9745 127.223 35.1752H126.073C126.162 33.2327 127.513 32.4736 129.093 32.4736C130.01 32.4736 131.918 32.5737 131.918 35.1545V40.2366C131.918 40.9577 131.918 41.596 132.024 42.7795H130.909V41.5374H130.905ZM130.833 37.6145C129.286 37.6731 126.948 37.473 126.948 39.9365C126.948 41.0785 127.468 42.017 128.584 42.017C129.824 42.017 130.833 40.7749 130.833 39.4569V37.6145Z" fill="#808184"/>
<path d="M133.832 42.7796V28.3301H134.91V33.9125H134.945C135.465 33.0707 136.167 32.4703 137.138 32.4703C139.388 32.4703 139.618 34.33 139.618 35.6515V42.7762H138.54V35.7136C138.54 34.5336 138.127 33.433 136.87 33.433C135.899 33.433 134.91 34.1748 134.91 36.4347V42.7796H133.832Z" fill="#808184"/>
<path d="M143.056 42.7968L140.18 32.6704H141.347L143.558 40.9544H143.593L145.732 32.6704H146.81L143.052 46.599H141.991L143.052 42.7968H143.056Z" fill="#808184"/>
<path d="M152.425 41.5374H152.39C151.815 42.4965 150.933 42.9796 149.821 42.9796C148.202 42.9796 147.32 41.7582 147.32 39.9986C147.32 36.4552 150.52 36.8175 152.356 36.6553V35.8135C152.356 34.3333 151.96 33.4328 150.523 33.4328C149.535 33.4328 148.743 33.9745 148.743 35.1752H147.592C147.682 33.2327 149.032 32.4736 150.613 32.4736C151.529 32.4736 153.437 32.5737 153.437 35.1545V40.2366C153.437 40.9577 153.437 41.596 153.544 42.7795H152.428V41.5374H152.425ZM152.352 37.6145C150.806 37.6731 148.467 37.473 148.467 39.9365C148.467 41.0785 148.987 42.017 150.103 42.017C151.343 42.017 152.352 40.7749 152.352 39.4569V37.6145Z" fill="#808184"/>
<path d="M154.994 42.7796V28.3301H156.072V42.7796H154.994Z" fill="#808184"/>
<path d="M163.264 32.6739V42.7796H162.33V41.6582H162.296C161.666 42.5174 161.018 42.9797 160.012 42.9797C158.142 42.9797 157.622 41.4581 157.622 39.8193V32.6739H158.7V39.6157C158.7 39.8952 158.645 42.0171 160.209 42.0171C161.666 42.0171 162.186 40.4955 162.186 39.7951V32.6704H163.264V32.6739Z" fill="#808184"/>
<path d="M165.96 34.0331H165.994C166.442 33.074 167.396 32.4736 168.495 32.4736V33.695C166.966 33.5536 165.96 34.5748 165.96 36.2758V42.7795H164.882V32.6737H165.96V34.0331Z" fill="#808184"/>
<path d="M168.856 38.8151V36.6346C168.856 34.0124 169.862 32.4736 171.984 32.4736C174.105 32.4736 175.111 34.0159 175.111 36.6346V38.8151C175.111 41.4373 174.105 42.9761 171.984 42.9761C169.862 42.9761 168.856 41.4339 168.856 38.8151ZM169.934 37.7145C169.934 40.3574 170.203 42.017 171.984 42.017C173.764 42.017 174.033 40.3574 174.033 37.7145C174.033 35.0717 173.764 33.4328 171.984 33.4328C170.203 33.4328 169.934 35.0924 169.934 37.7145Z" fill="#808184"/>
<path d="M177.791 42.7795H176.713V32.6737H177.791V33.9158H177.825C178.345 33.074 179.048 32.4736 180.019 32.4736C182.268 32.4736 182.499 34.3333 182.499 35.6547V42.7795H181.421V35.7168C181.421 34.5369 181.008 33.4362 179.751 33.4362C178.779 33.4362 177.791 34.178 177.791 36.4379V42.7829V42.7795Z" fill="#808184"/>
<path d="M184.208 29.8516V28.3301H185.537V29.8516H184.208ZM184.335 42.7796V32.6739H185.413V42.7796H184.335Z" fill="#808184"/>
<path d="M192.37 41.4961L192.336 41.5168C191.778 42.476 191.096 42.9763 190.035 42.9763C187.41 42.9763 187.266 40.0746 187.266 37.7147C187.266 35.7722 187.266 32.4703 190.052 32.4703C190.879 32.4703 191.688 32.8913 192.246 33.671L192.28 33.6917V28.3301H193.358V40.7785C193.358 41.7791 193.414 42.4381 193.465 42.7796H192.422L192.367 41.4996L192.37 41.4961ZM192.315 38.6359V36.8349C192.315 36.2345 192.315 33.433 190.283 33.433C188.251 33.433 188.34 35.3927 188.34 37.7561C188.34 41.5168 189.15 42.0171 190.317 42.0171C191.344 42.0171 192.311 41.0959 192.311 38.6359H192.315Z" fill="#808184"/>
<path d="M199.92 41.5374H199.885C199.31 42.4965 198.428 42.9796 197.316 42.9796C195.697 42.9796 194.815 41.7582 194.815 39.9986C194.815 36.4552 198.015 36.8175 199.851 36.6553V35.8135C199.851 34.3333 199.455 33.4328 198.019 33.4328C197.03 33.4328 196.238 33.9745 196.238 35.1752H195.088C195.177 33.2327 196.527 32.4736 198.108 32.4736C199.024 32.4736 200.932 32.5737 200.932 35.1545V40.2366C200.932 40.9577 200.932 41.596 201.039 42.7795H199.923V41.5374H199.92ZM199.851 37.6145C198.304 37.6731 195.966 37.473 195.966 39.9365C195.966 41.0785 196.486 42.017 197.602 42.017C198.842 42.017 199.851 40.7749 199.851 39.4569V37.6145Z" fill="#808184"/>
<path d="M205.262 42.9796C203.302 42.9796 202.531 41.9204 202.548 39.7778H203.643C203.643 41.1579 203.929 42.0791 205.314 42.0791C206.357 42.0791 206.86 41.4201 206.86 40.2987C206.86 37.6559 202.779 38.339 202.779 34.9957C202.779 33.1361 203.929 32.4736 205.51 32.4736C207.308 32.4736 207.883 33.8537 207.883 35.396H206.822C206.767 34.1159 206.464 33.4362 205.242 33.4362C204.467 33.4362 203.857 33.9952 203.857 34.8957C203.857 37.4178 207.938 36.7381 207.938 40.1193C207.938 42.0204 206.95 42.9796 205.259 42.9796H205.262Z" fill="#808184"/>
<path d="M210.332 37.9767V38.7565C210.332 40.1573 210.673 42.017 212.381 42.017C213.731 42.017 214.396 41.0578 214.375 39.695H215.509C215.381 42.1377 214.196 42.9761 212.381 42.9761C210.818 42.9761 209.254 42.2757 209.254 39.2154V36.7347C209.254 33.8123 210.349 32.4736 212.381 32.4736C215.509 32.4736 215.509 34.975 215.509 37.9767H210.332ZM214.431 37.0141C214.431 34.7715 214.107 33.4328 212.381 33.4328C210.656 33.4328 210.332 34.7749 210.332 37.0141H214.431Z" fill="#808184"/>
<path d="M225.073 41.5374H225.039C224.463 42.4965 223.582 42.9796 222.469 42.9796C220.85 42.9796 219.969 41.7582 219.969 39.9986C219.969 36.4552 223.168 36.8175 225.004 36.6553V35.8135C225.004 34.3333 224.608 33.4328 223.172 33.4328C222.183 33.4328 221.391 33.9745 221.391 35.1752H220.241C220.33 33.2327 221.681 32.4736 223.261 32.4736C224.178 32.4736 226.086 32.5737 226.086 35.1545V40.2366C226.086 40.9577 226.086 41.596 226.192 42.7795H225.077V41.5374H225.073ZM225.001 37.6145C223.454 37.6731 221.116 37.473 221.116 39.9365C221.116 41.0785 221.636 42.017 222.752 42.017C223.992 42.017 225.001 40.7749 225.001 39.4569V37.6145Z" fill="#808184"/>
<path d="M227.643 42.7796V28.3301H228.721V42.7796H227.643Z" fill="#808184"/>
<path d="M231.256 33.6328H229.799V32.6737H231.256V30.9727C231.256 30.0136 231.383 28.2505 233.574 28.2505C233.736 28.2505 233.915 28.2919 234.183 28.3298V29.3304H233.374C232.33 29.3304 232.33 30.3724 232.33 30.952V32.6737H234.163V33.6328H232.33V42.7794H231.252V33.6328H231.256Z" fill="#808184"/>
<path d="M239.887 41.5374H239.852C239.277 42.4965 238.395 42.9796 237.283 42.9796C235.664 42.9796 234.782 41.7582 234.782 39.9986C234.782 36.4552 237.982 36.8175 239.818 36.6553V35.8135C239.818 34.3333 239.422 33.4328 237.985 33.4328C236.997 33.4328 236.205 33.9745 236.205 35.1752H235.054C235.144 33.2327 236.494 32.4736 238.075 32.4736C238.991 32.4736 240.899 32.5737 240.899 35.1545V40.2366C240.899 40.9577 240.899 41.596 241.006 42.7795H239.89V41.5374H239.887ZM239.814 37.6145C238.268 37.6731 235.929 37.473 235.929 39.9365C235.929 41.0785 236.449 42.017 237.565 42.017C238.805 42.017 239.814 40.7749 239.814 39.4569V37.6145Z" fill="#808184"/>
<path d="M241.895 38.0146V36.8726H245.525V38.0146H241.895Z" fill="#808184"/>
<path d="M249.958 42.9175C248.939 42.9175 248.26 42.5966 247.64 41.7582V46.6196H246.5V35.0337C246.5 34.2747 246.521 33.4535 246.421 32.691H247.52L247.54 33.9331C248.098 32.9739 248.897 32.4736 250.017 32.4736C252.872 32.4736 253.113 35.3166 253.113 37.4972C253.113 39.8192 253.072 42.9209 249.958 42.9209V42.9175ZM249.858 33.4742C247.561 33.4742 247.582 36.1757 247.582 37.818C247.582 39.5604 247.502 41.9411 249.879 41.9411C252.097 41.9411 251.956 39.0601 251.956 37.5179C251.956 35.9756 251.956 33.4742 249.858 33.4742Z" fill="#808184"/>
<path d="M263.859 42.7795V35.9756C263.859 34.4334 263.618 33.5156 262.302 33.5156C260.804 33.5156 260.284 35.0164 260.284 36.4759V42.7795H259.144V35.9756C259.144 34.6162 259.002 33.5156 257.604 33.5156C256.106 33.5156 255.565 35.258 255.565 36.7174V42.7795H254.425V34.6162C254.425 33.9745 254.384 33.3362 254.346 32.6944H255.465L255.486 34.1746C255.885 33.3155 256.684 32.4736 257.862 32.4736C259.46 32.4736 259.918 33.4742 260.08 34.1746C260.638 33.1947 261.32 32.4736 262.519 32.4736C264.616 32.4736 264.995 34.1953 264.995 35.8963V42.7795H263.855H263.859Z" fill="#808184"/>
<path d="M270.134 42.9175C269.114 42.9175 268.436 42.5966 267.816 41.7582V46.6196H266.676V35.0337C266.676 34.2747 266.697 33.4535 266.597 32.691H267.695L267.716 33.9331C268.274 32.9739 269.073 32.4736 270.192 32.4736C273.048 32.4736 273.289 35.3166 273.289 37.4972C273.289 39.8192 273.247 42.9209 270.134 42.9209V42.9175ZM270.034 33.4742C267.737 33.4742 267.757 36.1757 267.757 37.818C267.757 39.5604 267.678 41.9411 270.055 41.9411C272.273 41.9411 272.132 39.0601 272.132 37.5179C272.132 35.9756 272.132 33.4742 270.034 33.4742Z" fill="#808184"/>
<path d="M279.86 42.7793V36.4757C279.86 35.1336 279.902 33.474 278.083 33.474C276.265 33.474 275.745 35.0542 275.745 36.7966V42.7793H274.604V28.3125H275.745V33.9364C276.344 33.0359 277.143 32.4769 278.3 32.4769C280.356 32.4769 280.997 33.857 280.997 35.6787V42.7827H279.857L279.86 42.7793Z" fill="#808184"/>
<path d="M215.178 4.45088H214.065V3.70218H217.134V4.45088H216.022V7.42843H215.174V4.45088H215.178ZM217.92 3.69873H218.812L219.79 5.27203L220.768 3.69873H221.639V7.42497H220.844V4.90976L219.817 6.54517H219.745L218.719 4.90976V7.42497H217.923V3.69873H217.92Z" fill="#7C02BB"/>
</g>
<defs>
<clipPath id="clip0_2105_3622">
<rect width="281" height="61" fill="white"/>
</clipPath>
</defs>
</svg>
